<?xml version="1.0" encoding="utf-8"?>
<!-- Generator: Adobe Illustrator 19.2.0, SVG Export Plug-In . SVG Version: 6.00 Build 0)  -->
<svg version="1.1" id="Layer_1" xmlns="http://www.w3.org/2000/svg" xmlns:xlink="http://www.w3.org/1999/xlink" x="0px" y="0px"
	 viewBox="0 0 1920 1080" style="enable-background:new 0 0 1920 1080;" xml:space="preserve">
<style type="text/css">
	.st0{fill:none;}
	.st1{fill:#1B1B1B;}
	.st2{opacity:0.9;fill:url(#XMLID_800_);enable-background:new    ;}
</style>
<pattern  y="1080" width="846.6" height="846.6" patternUnits="userSpaceOnUse" id="XMLID_801_" viewBox="0 -846.6 846.6 846.6" style="overflow:visible;">
	<g>
		<rect y="-846.6" class="st0" width="846.6" height="846.6"/>
		<g>
			<rect y="-846.6" class="st0" width="846.6" height="846.6"/>
			<g id="XMLID_400_">
				<polygon id="XMLID_798_" class="st0" points="0,-846.6 846.6,-846.6 846.6,0 0,0 				"/>
				<g id="XMLID_401_">
					<polygon id="XMLID_797_" class="st1" points="841.2,-337.9 823,-337.9 823,-391.6 841.2,-391.6 					"/>
					<polygon id="XMLID_796_" class="st1" points="745.2,-370 726.9,-370 726.9,-388.3 745.2,-388.3 					"/>
					<polygon id="XMLID_795_" class="st1" points="809.2,-370 791,-370 791,-425 809.2,-425 					"/>
					<polygon id="XMLID_794_" class="st1" points="777.2,-402.1 758.9,-402.1 758.9,-420.4 777.2,-420.4 					"/>
					<polygon id="XMLID_793_" class="st1" points="841.2,-402.1 823,-402.1 823,-420.4 841.2,-420.4 					"/>
					<polygon id="XMLID_792_" class="st1" points="745.2,-434.2 726.9,-434.2 726.9,-452.5 745.2,-452.5 					"/>
					<polygon id="XMLID_791_" class="st1" points="841.9,-434.2 791,-434.2 791,-452.5 841.9,-452.5 					"/>
					<polygon id="XMLID_790_" class="st1" points="777.2,-427.6 758.9,-427.6 758.9,-484.6 777.2,-484.6 					"/>
					<polygon id="XMLID_789_" class="st1" points="841.2,-466.3 823,-466.3 823,-484.6 841.2,-484.6 					"/>
					<polygon id="XMLID_788_" class="st1" points="598.9,-337.9 580.6,-337.9 580.6,-391.6 598.9,-391.6 					"/>
					<polygon id="XMLID_787_" class="st1" points="502.9,-370 484.6,-370 484.6,-388.3 502.9,-388.3 					"/>
					<polygon id="XMLID_786_" class="st1" points="566.9,-370 548.6,-370 548.6,-425 566.9,-425 					"/>
					<polygon id="XMLID_785_" class="st1" points="630.9,-370 612.6,-370 612.6,-388.3 630.9,-388.3 					"/>
					<polygon id="XMLID_784_" class="st1" points="694.9,-370 676.7,-370 676.7,-421.7 694.9,-421.7 					"/>
					<polygon id="XMLID_783_" class="st1" points="534.9,-402.1 516.6,-402.1 516.6,-420.4 534.9,-420.4 					"/>
					<polygon id="XMLID_782_" class="st1" points="598.9,-402.1 580.6,-402.1 580.6,-420.4 598.9,-420.4 					"/>
					<polygon id="XMLID_781_" class="st1" points="662.9,-402.1 644.6,-402.1 644.6,-420.4 662.9,-420.4 					"/>
					<polygon id="XMLID_780_" class="st1" points="726.9,-402.1 708.7,-402.1 708.7,-420.4 726.9,-420.4 					"/>
					<polygon id="XMLID_779_" class="st1" points="502.9,-434.2 484.6,-434.2 484.6,-452.5 502.9,-452.5 					"/>
					<polygon id="XMLID_778_" class="st1" points="599.6,-434.2 548.6,-434.2 548.6,-452.5 599.6,-452.5 					"/>
					<polygon id="XMLID_777_" class="st1" points="630.9,-434.2 612.6,-434.2 612.6,-452.5 630.9,-452.5 					"/>
					<polygon id="XMLID_776_" class="st1" points="694.9,-434.2 676.7,-434.2 676.7,-452.5 694.9,-452.5 					"/>
					<polygon id="XMLID_775_" class="st1" points="534.9,-427.6 516.6,-427.6 516.6,-484.6 534.9,-484.6 					"/>
					<polygon id="XMLID_774_" class="st1" points="598.9,-466.3 580.6,-466.3 580.6,-484.6 598.9,-484.6 					"/>
					<polygon id="XMLID_773_" class="st1" points="662.9,-466.3 644.6,-466.3 644.6,-484.6 662.9,-484.6 					"/>
					<polygon id="XMLID_772_" class="st1" points="726.9,-466.3 708.7,-466.3 708.7,-484.6 726.9,-484.6 					"/>
					<polygon id="XMLID_771_" class="st1" points="624.1,-484.6 605.8,-484.6 605.8,-503 624.1,-503 					"/>
					<polygon id="XMLID_770_" class="st1" points="688.1,-484.6 669.8,-484.6 669.8,-503 688.1,-503 					"/>
					<polygon id="XMLID_769_" class="st1" points="752.1,-484.6 733.8,-484.6 733.8,-503 752.1,-503 					"/>
					<polygon id="XMLID_768_" class="st1" points="816.1,-484.6 797.8,-484.6 797.8,-503 816.1,-503 					"/>
					<polygon id="XMLID_767_" class="st1" points="675.7,-516.7 637.8,-516.7 637.8,-535.1 675.7,-535.1 					"/>
					<polygon id="XMLID_766_" class="st1" points="720.1,-516.7 701.8,-516.7 701.8,-567.1 720.1,-567.1 					"/>
					<polygon id="XMLID_765_" class="st1" points="784.1,-516.7 765.8,-516.7 765.8,-535.1 784.1,-535.1 					"/>
					<polygon id="XMLID_764_" class="st1" points="846.6,-535.1 829.8,-535.1 829.8,-516.7 846.6,-516.7 					"/>
					<polygon id="XMLID_763_" class="st1" points="624.1,-548.8 605.8,-548.8 605.8,-567.1 624.1,-567.1 					"/>
					<polygon id="XMLID_762_" class="st1" points="688.1,-548.8 635.2,-548.8 635.2,-567.1 688.1,-567.1 					"/>
					<polygon id="XMLID_761_" class="st1" points="752.1,-548.8 733.8,-548.8 733.8,-602.5 752.1,-602.5 					"/>
					<polygon id="XMLID_760_" class="st1" points="816.1,-548.8 797.8,-548.8 797.8,-567.1 816.1,-567.1 					"/>
					<polygon id="XMLID_759_" class="st1" points="656.1,-580.9 637.8,-580.9 637.8,-599.2 656.1,-599.2 					"/>
					<polygon id="XMLID_758_" class="st1" points="720.1,-580.9 701.8,-580.9 701.8,-634.6 720.1,-634.6 					"/>
					<polygon id="XMLID_757_" class="st1" points="784.1,-542.3 765.8,-542.3 765.8,-599.2 784.1,-599.2 					"/>
					<polygon id="XMLID_756_" class="st1" points="846.6,-599.2 829.8,-599.2 829.8,-580.9 846.6,-580.9 					"/>
					<polygon id="XMLID_755_" class="st1" points="624.1,-613 605.8,-613 605.8,-631.3 624.1,-631.3 					"/>
					<polygon id="XMLID_754_" class="st1" points="688.1,-613 669.8,-613 669.8,-668 688.1,-668 					"/>
					<polygon id="XMLID_753_" class="st1" points="752.1,-613 733.8,-613 733.8,-631.3 752.1,-631.3 					"/>
					<polygon id="XMLID_752_" class="st1" points="816.1,-613 797.8,-613 797.8,-664.8 816.1,-664.8 					"/>
					<polygon id="XMLID_751_" class="st1" points="656.1,-645.1 637.8,-645.1 637.8,-663.4 656.1,-663.4 					"/>
					<polygon id="XMLID_750_" class="st1" points="720.1,-645.1 701.8,-645.1 701.8,-663.4 720.1,-663.4 					"/>
					<polygon id="XMLID_749_" class="st1" points="784.1,-645.1 765.8,-645.1 765.8,-663.4 784.1,-663.4 					"/>
					<polygon id="XMLID_748_" class="st1" points="846.6,-663.4 829.8,-663.4 829.8,-645.1 846.6,-645.1 					"/>
					<polygon id="XMLID_747_" class="st1" points="624.1,-677.2 605.8,-677.2 605.8,-695.5 624.1,-695.5 					"/>
					<polygon id="XMLID_746_" class="st1" points="720.7,-677.2 669.8,-677.2 669.8,-695.5 720.7,-695.5 					"/>
					<polygon id="XMLID_745_" class="st1" points="752.1,-677.2 733.8,-677.2 733.8,-695.5 752.1,-695.5 					"/>
					<polygon id="XMLID_744_" class="st1" points="816.1,-677.2 797.8,-677.2 797.8,-695.5 816.1,-695.5 					"/>
					<polygon id="XMLID_743_" class="st1" points="656.1,-670.7 637.8,-670.7 637.8,-727.6 656.1,-727.6 					"/>
					<polygon id="XMLID_742_" class="st1" points="720.1,-709.3 701.8,-709.3 701.8,-727.6 720.1,-727.6 					"/>
					<polygon id="XMLID_741_" class="st1" points="784.1,-709.3 765.8,-709.3 765.8,-727.6 784.1,-727.6 					"/>
					<polygon id="XMLID_740_" class="st1" points="846.6,-727.6 829.8,-727.6 829.8,-709.3 846.6,-709.3 					"/>
					<polygon id="XMLID_739_" class="st1" points="509.8,-484.6 491.5,-484.6 491.5,-503 509.8,-503 					"/>
					<polygon id="XMLID_738_" class="st1" points="573.8,-484.6 555.5,-484.6 555.5,-503 573.8,-503 					"/>
					<polygon id="XMLID_737_" class="st1" points="541.8,-516.7 523.5,-516.7 523.5,-535.1 541.8,-535.1 					"/>
					<polygon id="XMLID_736_" class="st1" points="605.8,-516.7 587.5,-516.7 587.5,-535.1 605.8,-535.1 					"/>
					<polygon id="XMLID_735_" class="st1" points="509.8,-548.8 491.5,-548.8 491.5,-602.5 509.8,-602.5 					"/>
					<polygon id="XMLID_734_" class="st1" points="573.8,-548.8 555.5,-548.8 555.5,-567.1 573.8,-567.1 					"/>
					<polygon id="XMLID_733_" class="st1" points="541.8,-542.3 523.5,-542.3 523.5,-599.2 541.8,-599.2 					"/>
					<polygon id="XMLID_732_" class="st1" points="605.8,-580.9 587.5,-580.9 587.5,-599.2 605.8,-599.2 					"/>
					<polygon id="XMLID_731_" class="st1" points="509.8,-613 491.5,-613 491.5,-631.3 509.8,-631.3 					"/>
					<polygon id="XMLID_730_" class="st1" points="573.8,-613 555.5,-613 555.5,-664.8 573.8,-664.8 					"/>
					<polygon id="XMLID_729_" class="st1" points="541.8,-645.1 523.5,-645.1 523.5,-663.4 541.8,-663.4 					"/>
					<polygon id="XMLID_728_" class="st1" points="605.8,-645.1 587.5,-645.1 587.5,-663.4 605.8,-663.4 					"/>
					<polygon id="XMLID_727_" class="st1" points="509.8,-677.2 491.5,-677.2 491.5,-695.5 509.8,-695.5 					"/>
					<polygon id="XMLID_726_" class="st1" points="573.8,-677.2 555.5,-677.2 555.5,-695.5 573.8,-695.5 					"/>
					<polygon id="XMLID_725_" class="st1" points="541.8,-709.3 523.5,-709.3 523.5,-727.6 541.8,-727.6 					"/>
					<polygon id="XMLID_724_" class="st1" points="605.8,-709.3 587.5,-709.3 587.5,-727.6 605.8,-727.6 					"/>
					<polygon id="XMLID_723_" class="st1" points="745.2,-727.6 726.9,-727.6 726.9,-746 745.2,-746 					"/>
					<polygon id="XMLID_722_" class="st1" points="809.2,-727.6 791,-727.6 791,-746 809.2,-746 					"/>
					<polygon id="XMLID_721_" class="st1" points="796.8,-759.7 758.9,-759.7 758.9,-778.1 796.8,-778.1 					"/>
					<polygon id="XMLID_720_" class="st1" points="841.2,-759.7 823,-759.7 823,-810.2 841.2,-810.2 					"/>
					<polygon id="XMLID_719_" class="st1" points="745.2,-791.8 726.9,-791.8 726.9,-810.2 745.2,-810.2 					"/>
					<polygon id="XMLID_718_" class="st1" points="809.2,-791.8 756.3,-791.8 756.3,-810.2 809.2,-810.2 					"/>
					<polygon id="XMLID_717_" class="st1" points="777.2,-823.9 758.9,-823.9 758.9,-842.3 777.2,-842.3 					"/>
					<polygon id="XMLID_716_" class="st1" points="823,-846.6 823,-823.9 841.2,-823.9 841.2,-846.6 					"/>
					<polygon id="XMLID_715_" class="st1" points="502.9,-727.6 484.6,-727.6 484.6,-746 502.9,-746 					"/>
					<polygon id="XMLID_714_" class="st1" points="566.9,-727.6 548.6,-727.6 548.6,-746 566.9,-746 					"/>
					<polygon id="XMLID_713_" class="st1" points="630.9,-727.6 612.6,-727.6 612.6,-746 630.9,-746 					"/>
					<polygon id="XMLID_712_" class="st1" points="694.9,-727.6 676.7,-727.6 676.7,-746 694.9,-746 					"/>
					<polygon id="XMLID_711_" class="st1" points="554.5,-759.7 516.6,-759.7 516.6,-778.1 554.5,-778.1 					"/>
					<polygon id="XMLID_710_" class="st1" points="598.9,-759.7 580.6,-759.7 580.6,-810.2 598.9,-810.2 					"/>
					<polygon id="XMLID_709_" class="st1" points="662.9,-759.7 644.6,-759.7 644.6,-778.1 662.9,-778.1 					"/>
					<polygon id="XMLID_708_" class="st1" points="726.9,-759.7 708.7,-759.7 708.7,-778.1 726.9,-778.1 					"/>
					<polygon id="XMLID_707_" class="st1" points="502.9,-791.8 484.6,-791.8 484.6,-810.2 502.9,-810.2 					"/>
					<polygon id="XMLID_706_" class="st1" points="566.9,-791.8 514,-791.8 514,-810.2 566.9,-810.2 					"/>
					<polygon id="XMLID_705_" class="st1" points="630.9,-791.8 612.6,-791.8 612.6,-845.6 630.9,-845.6 					"/>
					<polygon id="XMLID_704_" class="st1" points="694.9,-791.8 676.7,-791.8 676.7,-810.2 694.9,-810.2 					"/>
					<polygon id="XMLID_703_" class="st1" points="534.9,-823.9 516.6,-823.9 516.6,-842.3 534.9,-842.3 					"/>
					<polygon id="XMLID_702_" class="st1" points="580.6,-846.6 580.6,-823.9 598.9,-823.9 598.9,-846.6 					"/>
					<polygon id="XMLID_701_" class="st1" points="662.9,-785.3 644.6,-785.3 644.6,-842.3 662.9,-842.3 					"/>
					<polygon id="XMLID_700_" class="st1" points="726.9,-823.9 708.7,-823.9 708.7,-842.3 726.9,-842.3 					"/>
					<polygon id="XMLID_699_" class="st1" points="624.1,0 624.1,-16.9 605.8,-16.9 605.8,0 					"/>
					<polygon id="XMLID_698_" class="st1" points="688.1,0 688.1,-16.9 669.8,-16.9 669.8,0 					"/>
					<polygon id="XMLID_697_" class="st1" points="752.1,0 752.1,-16.9 733.8,-16.9 733.8,0 					"/>
					<polygon id="XMLID_696_" class="st1" points="816.1,0 816.1,-16.9 797.8,-16.9 797.8,0 					"/>
					<polygon id="XMLID_695_" class="st1" points="675.7,-30.6 637.8,-30.6 637.8,-49 675.7,-49 					"/>
					<polygon id="XMLID_694_" class="st1" points="720.1,-30.6 701.8,-30.6 701.8,-81.1 720.1,-81.1 					"/>
					<polygon id="XMLID_693_" class="st1" points="784.1,-30.6 765.8,-30.6 765.8,-49 784.1,-49 					"/>
					<polygon id="XMLID_692_" class="st1" points="846.6,-49 829.8,-49 829.8,-30.6 846.6,-30.6 					"/>
					<polygon id="XMLID_691_" class="st1" points="624.1,-62.7 605.8,-62.7 605.8,-81.1 624.1,-81.1 					"/>
					<polygon id="XMLID_690_" class="st1" points="688.1,-62.7 635.2,-62.7 635.2,-81.1 688.1,-81.1 					"/>
					<polygon id="XMLID_689_" class="st1" points="752.1,-62.7 733.8,-62.7 733.8,-116.5 752.1,-116.5 					"/>
					<polygon id="XMLID_688_" class="st1" points="816.1,-62.7 797.8,-62.7 797.8,-81.1 816.1,-81.1 					"/>
					<polygon id="XMLID_687_" class="st1" points="656.1,-94.8 637.8,-94.8 637.8,-113.2 656.1,-113.2 					"/>
					<polygon id="XMLID_686_" class="st1" points="720.1,-94.8 701.8,-94.8 701.8,-148.6 720.1,-148.6 					"/>
					<polygon id="XMLID_685_" class="st1" points="784.1,-56.2 765.8,-56.2 765.8,-113.2 784.1,-113.2 					"/>
					<polygon id="XMLID_684_" class="st1" points="846.6,-113.2 829.8,-113.2 829.8,-94.8 846.6,-94.8 					"/>
					<polygon id="XMLID_683_" class="st1" points="624.1,-126.9 605.8,-126.9 605.8,-145.3 624.1,-145.3 					"/>
					<polygon id="XMLID_682_" class="st1" points="688.1,-126.9 669.8,-126.9 669.8,-182 688.1,-182 					"/>
					<polygon id="XMLID_681_" class="st1" points="752.1,-126.9 733.8,-126.9 733.8,-145.3 752.1,-145.3 					"/>
					<polygon id="XMLID_680_" class="st1" points="816.1,-126.9 797.8,-126.9 797.8,-178.7 816.1,-178.7 					"/>
					<polygon id="XMLID_679_" class="st1" points="656.1,-159 637.8,-159 637.8,-177.4 656.1,-177.4 					"/>
					<polygon id="XMLID_678_" class="st1" points="720.1,-159 701.8,-159 701.8,-177.4 720.1,-177.4 					"/>
					<polygon id="XMLID_677_" class="st1" points="784.1,-159 765.8,-159 765.8,-177.4 784.1,-177.4 					"/>
					<polygon id="XMLID_676_" class="st1" points="846.6,-177.4 829.8,-177.4 829.8,-159 846.6,-159 					"/>
					<polygon id="XMLID_675_" class="st1" points="624.1,-191.1 605.8,-191.1 605.8,-209.5 624.1,-209.5 					"/>
					<polygon id="XMLID_674_" class="st1" points="720.7,-191.1 669.8,-191.1 669.8,-209.5 720.7,-209.5 					"/>
					<polygon id="XMLID_673_" class="st1" points="752.1,-191.1 733.8,-191.1 733.8,-209.5 752.1,-209.5 					"/>
					<polygon id="XMLID_672_" class="st1" points="816.1,-191.1 797.8,-191.1 797.8,-209.5 816.1,-209.5 					"/>
					<polygon id="XMLID_671_" class="st1" points="656.1,-184.6 637.8,-184.6 637.8,-241.6 656.1,-241.6 					"/>
					<polygon id="XMLID_670_" class="st1" points="720.1,-223.2 701.8,-223.2 701.8,-241.6 720.1,-241.6 					"/>
					<polygon id="XMLID_669_" class="st1" points="784.1,-223.2 765.8,-223.2 765.8,-241.6 784.1,-241.6 					"/>
					<polygon id="XMLID_668_" class="st1" points="846.6,-241.6 829.8,-241.6 829.8,-223.2 846.6,-223.2 					"/>
					<polygon id="XMLID_667_" class="st1" points="509.8,0 509.8,-16.9 491.5,-16.9 491.5,0 					"/>
					<polygon id="XMLID_666_" class="st1" points="573.8,0 573.8,-16.9 555.5,-16.9 555.5,0 					"/>
					<polygon id="XMLID_665_" class="st1" points="541.8,-30.6 523.5,-30.6 523.5,-49 541.8,-49 					"/>
					<polygon id="XMLID_664_" class="st1" points="605.8,-30.6 587.5,-30.6 587.5,-49 605.8,-49 					"/>
					<polygon id="XMLID_663_" class="st1" points="509.8,-62.7 491.5,-62.7 491.5,-116.5 509.8,-116.5 					"/>
					<polygon id="XMLID_662_" class="st1" points="573.8,-62.7 555.5,-62.7 555.5,-81.1 573.8,-81.1 					"/>
					<polygon id="XMLID_661_" class="st1" points="541.8,-56.2 523.5,-56.2 523.5,-113.2 541.8,-113.2 					"/>
					<polygon id="XMLID_660_" class="st1" points="605.8,-94.8 587.5,-94.8 587.5,-113.2 605.8,-113.2 					"/>
					<polygon id="XMLID_659_" class="st1" points="509.8,-126.9 491.5,-126.9 491.5,-145.3 509.8,-145.3 					"/>
					<polygon id="XMLID_658_" class="st1" points="573.8,-126.9 555.5,-126.9 555.5,-178.7 573.8,-178.7 					"/>
					<polygon id="XMLID_657_" class="st1" points="541.8,-159 523.5,-159 523.5,-177.4 541.8,-177.4 					"/>
					<polygon id="XMLID_656_" class="st1" points="605.8,-159 587.5,-159 587.5,-177.4 605.8,-177.4 					"/>
					<polygon id="XMLID_655_" class="st1" points="509.8,-191.1 491.5,-191.1 491.5,-209.5 509.8,-209.5 					"/>
					<polygon id="XMLID_654_" class="st1" points="573.8,-191.1 555.5,-191.1 555.5,-209.5 573.8,-209.5 					"/>
					<polygon id="XMLID_653_" class="st1" points="541.8,-223.2 523.5,-223.2 523.5,-241.6 541.8,-241.6 					"/>
					<polygon id="XMLID_652_" class="st1" points="605.8,-223.2 587.5,-223.2 587.5,-241.6 605.8,-241.6 					"/>
					<polygon id="XMLID_651_" class="st1" points="745.2,-241.6 726.9,-241.6 726.9,-259.9 745.2,-259.9 					"/>
					<polygon id="XMLID_650_" class="st1" points="809.2,-241.6 791,-241.6 791,-259.9 809.2,-259.9 					"/>
					<polygon id="XMLID_649_" class="st1" points="796.8,-273.7 758.9,-273.7 758.9,-292 796.8,-292 					"/>
					<polygon id="XMLID_648_" class="st1" points="841.2,-273.7 823,-273.7 823,-324.1 841.2,-324.1 					"/>
					<polygon id="XMLID_647_" class="st1" points="745.2,-305.8 726.9,-305.8 726.9,-324.1 745.2,-324.1 					"/>
					<polygon id="XMLID_646_" class="st1" points="809.2,-305.8 756.3,-305.8 756.3,-324.1 809.2,-324.1 					"/>
					<polygon id="XMLID_645_" class="st1" points="777.2,-337.9 758.9,-337.9 758.9,-356.2 777.2,-356.2 					"/>
					<polygon id="XMLID_644_" class="st1" points="841.2,-337.9 823,-337.9 823,-391.6 841.2,-391.6 					"/>
					<polygon id="XMLID_643_" class="st1" points="502.9,-241.6 484.6,-241.6 484.6,-259.9 502.9,-259.9 					"/>
					<polygon id="XMLID_642_" class="st1" points="566.9,-241.6 548.6,-241.6 548.6,-259.9 566.9,-259.9 					"/>
					<polygon id="XMLID_641_" class="st1" points="630.9,-241.6 612.6,-241.6 612.6,-259.9 630.9,-259.9 					"/>
					<polygon id="XMLID_640_" class="st1" points="694.9,-241.6 676.7,-241.6 676.7,-259.9 694.9,-259.9 					"/>
					<polygon id="XMLID_639_" class="st1" points="554.5,-273.7 516.6,-273.7 516.6,-292 554.5,-292 					"/>
					<polygon id="XMLID_638_" class="st1" points="598.9,-273.7 580.6,-273.7 580.6,-324.1 598.9,-324.1 					"/>
					<polygon id="XMLID_637_" class="st1" points="662.9,-273.7 644.6,-273.7 644.6,-292 662.9,-292 					"/>
					<polygon id="XMLID_636_" class="st1" points="726.9,-273.7 708.7,-273.7 708.7,-292 726.9,-292 					"/>
					<polygon id="XMLID_635_" class="st1" points="502.9,-305.8 484.6,-305.8 484.6,-324.1 502.9,-324.1 					"/>
					<polygon id="XMLID_634_" class="st1" points="566.9,-305.8 514,-305.8 514,-324.1 566.9,-324.1 					"/>
					<polygon id="XMLID_633_" class="st1" points="630.9,-305.8 612.6,-305.8 612.6,-359.5 630.9,-359.5 					"/>
					<polygon id="XMLID_632_" class="st1" points="694.9,-305.8 676.7,-305.8 676.7,-324.1 694.9,-324.1 					"/>
					<polygon id="XMLID_631_" class="st1" points="534.9,-337.9 516.6,-337.9 516.6,-356.2 534.9,-356.2 					"/>
					<polygon id="XMLID_630_" class="st1" points="598.9,-337.9 580.6,-337.9 580.6,-391.6 598.9,-391.6 					"/>
					<polygon id="XMLID_629_" class="st1" points="662.9,-299.2 644.6,-299.2 644.6,-356.2 662.9,-356.2 					"/>
					<polygon id="XMLID_628_" class="st1" points="726.9,-337.9 708.7,-337.9 708.7,-356.2 726.9,-356.2 					"/>
					<polygon id="XMLID_627_" class="st1" points="356.6,-337.9 338.3,-337.9 338.3,-391.6 356.6,-391.6 					"/>
					<polygon id="XMLID_626_" class="st1" points="260.6,-370 242.3,-370 242.3,-388.3 260.6,-388.3 					"/>
					<polygon id="XMLID_625_" class="st1" points="324.6,-370 306.3,-370 306.3,-425 324.6,-425 					"/>
					<polygon id="XMLID_624_" class="st1" points="388.6,-370 370.3,-370 370.3,-388.3 388.6,-388.3 					"/>
					<polygon id="XMLID_623_" class="st1" points="452.6,-370 434.3,-370 434.3,-421.7 452.6,-421.7 					"/>
					<polygon id="XMLID_622_" class="st1" points="292.6,-402.1 274.3,-402.1 274.3,-420.4 292.6,-420.4 					"/>
					<polygon id="XMLID_621_" class="st1" points="356.6,-402.1 338.3,-402.1 338.3,-420.4 356.6,-420.4 					"/>
					<polygon id="XMLID_620_" class="st1" points="420.6,-402.1 402.3,-402.1 402.3,-420.4 420.6,-420.4 					"/>
					<polygon id="XMLID_619_" class="st1" points="484.6,-402.1 466.3,-402.1 466.3,-420.4 484.6,-420.4 					"/>
					<polygon id="XMLID_618_" class="st1" points="260.6,-434.2 242.3,-434.2 242.3,-452.5 260.6,-452.5 					"/>
					<polygon id="XMLID_617_" class="st1" points="357.3,-434.2 306.3,-434.2 306.3,-452.5 357.3,-452.5 					"/>
					<polygon id="XMLID_616_" class="st1" points="388.6,-434.2 370.3,-434.2 370.3,-452.5 388.6,-452.5 					"/>
					<polygon id="XMLID_615_" class="st1" points="452.6,-434.2 434.3,-434.2 434.3,-452.5 452.6,-452.5 					"/>
					<polygon id="XMLID_614_" class="st1" points="292.6,-427.6 274.3,-427.6 274.3,-484.6 292.6,-484.6 					"/>
					<polygon id="XMLID_613_" class="st1" points="356.6,-466.3 338.3,-466.3 338.3,-484.6 356.6,-484.6 					"/>
					<polygon id="XMLID_612_" class="st1" points="420.6,-466.3 402.3,-466.3 402.3,-484.6 420.6,-484.6 					"/>
					<polygon id="XMLID_611_" class="st1" points="484.6,-466.3 466.3,-466.3 466.3,-484.6 484.6,-484.6 					"/>
					<polygon id="XMLID_610_" class="st1" points="114.3,-337.9 96,-337.9 96,-391.6 114.3,-391.6 					"/>
					<polygon id="XMLID_609_" class="st1" points="18.3,-370 0,-370 0,-388.3 18.3,-388.3 					"/>
					<polygon id="XMLID_608_" class="st1" points="82.3,-370 64,-370 64,-425 82.3,-425 					"/>
					<polygon id="XMLID_607_" class="st1" points="146.3,-370 128,-370 128,-388.3 146.3,-388.3 					"/>
					<polygon id="XMLID_606_" class="st1" points="210.3,-370 192,-370 192,-421.7 210.3,-421.7 					"/>
					<polygon id="XMLID_605_" class="st1" points="50.3,-402.1 32,-402.1 32,-420.4 50.3,-420.4 					"/>
					<polygon id="XMLID_604_" class="st1" points="114.3,-402.1 96,-402.1 96,-420.4 114.3,-420.4 					"/>
					<polygon id="XMLID_603_" class="st1" points="178.3,-402.1 160,-402.1 160,-420.4 178.3,-420.4 					"/>
					<polygon id="XMLID_602_" class="st1" points="242.3,-402.1 224,-402.1 224,-420.4 242.3,-420.4 					"/>
					<polygon id="XMLID_601_" class="st1" points="18.3,-434.2 0,-434.2 0,-452.5 18.3,-452.5 					"/>
					<polygon id="XMLID_600_" class="st1" points="115,-434.2 64,-434.2 64,-452.5 115,-452.5 					"/>
					<polygon id="XMLID_599_" class="st1" points="146.3,-434.2 128,-434.2 128,-452.5 146.3,-452.5 					"/>
					<polygon id="XMLID_598_" class="st1" points="210.3,-434.2 192,-434.2 192,-452.5 210.3,-452.5 					"/>
					<polygon id="XMLID_597_" class="st1" points="50.3,-427.6 32,-427.6 32,-484.6 50.3,-484.6 					"/>
					<polygon id="XMLID_596_" class="st1" points="114.3,-466.3 96,-466.3 96,-484.6 114.3,-484.6 					"/>
					<polygon id="XMLID_595_" class="st1" points="178.3,-466.3 160,-466.3 160,-484.6 178.3,-484.6 					"/>
					<polygon id="XMLID_594_" class="st1" points="242.3,-466.3 224,-466.3 224,-484.6 242.3,-484.6 					"/>
					<polygon id="XMLID_593_" class="st1" points="381.8,-484.6 363.5,-484.6 363.5,-503 381.8,-503 					"/>
					<polygon id="XMLID_592_" class="st1" points="445.8,-484.6 427.5,-484.6 427.5,-503 445.8,-503 					"/>
					<polygon id="XMLID_591_" class="st1" points="433.4,-516.7 395.5,-516.7 395.5,-535.1 433.4,-535.1 					"/>
					<polygon id="XMLID_590_" class="st1" points="477.8,-516.7 459.5,-516.7 459.5,-567.1 477.8,-567.1 					"/>
					<polygon id="XMLID_589_" class="st1" points="381.8,-548.8 363.5,-548.8 363.5,-567.1 381.8,-567.1 					"/>
					<polygon id="XMLID_588_" class="st1" points="445.8,-548.8 392.9,-548.8 392.9,-567.1 445.8,-567.1 					"/>
					<polygon id="XMLID_587_" class="st1" points="413.8,-580.9 395.5,-580.9 395.5,-599.2 413.8,-599.2 					"/>
					<polygon id="XMLID_586_" class="st1" points="477.8,-580.9 459.5,-580.9 459.5,-634.6 477.8,-634.6 					"/>
					<polygon id="XMLID_585_" class="st1" points="381.8,-613 363.5,-613 363.5,-631.3 381.8,-631.3 					"/>
					<polygon id="XMLID_584_" class="st1" points="445.8,-613 427.5,-613 427.5,-668 445.8,-668 					"/>
					<polygon id="XMLID_583_" class="st1" points="413.8,-645.1 395.5,-645.1 395.5,-663.4 413.8,-663.4 					"/>
					<polygon id="XMLID_582_" class="st1" points="477.8,-645.1 459.5,-645.1 459.5,-663.4 477.8,-663.4 					"/>
					<polygon id="XMLID_581_" class="st1" points="381.8,-677.2 363.5,-677.2 363.5,-695.5 381.8,-695.5 					"/>
					<polygon id="XMLID_580_" class="st1" points="478.4,-677.2 427.5,-677.2 427.5,-695.5 478.4,-695.5 					"/>
					<polygon id="XMLID_579_" class="st1" points="413.8,-670.7 395.5,-670.7 395.5,-727.6 413.8,-727.6 					"/>
					<polygon id="XMLID_578_" class="st1" points="477.8,-709.3 459.5,-709.3 459.5,-727.6 477.8,-727.6 					"/>
					<polygon id="XMLID_577_" class="st1" points="139.4,-484.6 121.2,-484.6 121.2,-503 139.4,-503 					"/>
					<polygon id="XMLID_576_" class="st1" points="203.5,-484.6 185.2,-484.6 185.2,-503 203.5,-503 					"/>
					<polygon id="XMLID_575_" class="st1" points="267.5,-484.6 249.2,-484.6 249.2,-503 267.5,-503 					"/>
					<polygon id="XMLID_574_" class="st1" points="331.5,-484.6 313.2,-484.6 313.2,-503 331.5,-503 					"/>
					<polygon id="XMLID_573_" class="st1" points="191,-516.7 153.2,-516.7 153.2,-535.1 191,-535.1 					"/>
					<polygon id="XMLID_572_" class="st1" points="235.5,-516.7 217.2,-516.7 217.2,-567.1 235.5,-567.1 					"/>
					<polygon id="XMLID_571_" class="st1" points="299.5,-516.7 281.2,-516.7 281.2,-535.1 299.5,-535.1 					"/>
					<polygon id="XMLID_570_" class="st1" points="363.5,-516.7 345.2,-516.7 345.2,-535.1 363.5,-535.1 					"/>
					<polygon id="XMLID_569_" class="st1" points="139.4,-548.8 121.2,-548.8 121.2,-567.1 139.4,-567.1 					"/>
					<polygon id="XMLID_568_" class="st1" points="203.5,-548.8 150.5,-548.8 150.5,-567.1 203.5,-567.1 					"/>
					<polygon id="XMLID_567_" class="st1" points="267.5,-548.8 249.2,-548.8 249.2,-602.5 267.5,-602.5 					"/>
					<polygon id="XMLID_566_" class="st1" points="331.5,-548.8 313.2,-548.8 313.2,-567.1 331.5,-567.1 					"/>
					<polygon id="XMLID_565_" class="st1" points="171.4,-580.9 153.2,-580.9 153.2,-599.2 171.4,-599.2 					"/>
					<polygon id="XMLID_564_" class="st1" points="235.5,-580.9 217.2,-580.9 217.2,-634.6 235.5,-634.6 					"/>
					<polygon id="XMLID_563_" class="st1" points="299.5,-542.3 281.2,-542.3 281.2,-599.2 299.5,-599.2 					"/>
					<polygon id="XMLID_562_" class="st1" points="363.5,-580.9 345.2,-580.9 345.2,-599.2 363.5,-599.2 					"/>
					<polygon id="XMLID_561_" class="st1" points="139.4,-613 121.2,-613 121.2,-631.3 139.4,-631.3 					"/>
					<polygon id="XMLID_560_" class="st1" points="203.5,-613 185.2,-613 185.2,-668 203.5,-668 					"/>
					<polygon id="XMLID_559_" class="st1" points="267.5,-613 249.2,-613 249.2,-631.3 267.5,-631.3 					"/>
					<polygon id="XMLID_558_" class="st1" points="331.5,-613 313.2,-613 313.2,-664.8 331.5,-664.8 					"/>
					<polygon id="XMLID_557_" class="st1" points="171.4,-645.1 153.2,-645.1 153.2,-663.4 171.4,-663.4 					"/>
					<polygon id="XMLID_556_" class="st1" points="235.5,-645.1 217.2,-645.1 217.2,-663.4 235.5,-663.4 					"/>
					<polygon id="XMLID_555_" class="st1" points="299.5,-645.1 281.2,-645.1 281.2,-663.4 299.5,-663.4 					"/>
					<polygon id="XMLID_554_" class="st1" points="363.5,-645.1 345.2,-645.1 345.2,-663.4 363.5,-663.4 					"/>
					<polygon id="XMLID_553_" class="st1" points="139.4,-677.2 121.2,-677.2 121.2,-695.5 139.4,-695.5 					"/>
					<polygon id="XMLID_552_" class="st1" points="236.1,-677.2 185.2,-677.2 185.2,-695.5 236.1,-695.5 					"/>
					<polygon id="XMLID_551_" class="st1" points="267.5,-677.2 249.2,-677.2 249.2,-695.5 267.5,-695.5 					"/>
					<polygon id="XMLID_550_" class="st1" points="331.5,-677.2 313.2,-677.2 313.2,-695.5 331.5,-695.5 					"/>
					<polygon id="XMLID_549_" class="st1" points="171.4,-670.7 153.2,-670.7 153.2,-727.6 171.4,-727.6 					"/>
					<polygon id="XMLID_548_" class="st1" points="235.5,-709.3 217.2,-709.3 217.2,-727.6 235.5,-727.6 					"/>
					<polygon id="XMLID_547_" class="st1" points="299.5,-709.3 281.2,-709.3 281.2,-727.6 299.5,-727.6 					"/>
					<polygon id="XMLID_546_" class="st1" points="363.5,-709.3 345.2,-709.3 345.2,-727.6 363.5,-727.6 					"/>
					<polygon id="XMLID_545_" class="st1" points="25.1,-484.6 6.9,-484.6 6.9,-503 25.1,-503 					"/>
					<polygon id="XMLID_544_" class="st1" points="89.2,-484.6 70.9,-484.6 70.9,-503 89.2,-503 					"/>
					<polygon id="XMLID_543_" class="st1" points="57.1,-516.7 38.9,-516.7 38.9,-535.1 57.1,-535.1 					"/>
					<polygon id="XMLID_542_" class="st1" points="121.2,-516.7 102.9,-516.7 102.9,-535.1 121.2,-535.1 					"/>
					<polygon id="XMLID_541_" class="st1" points="25.1,-548.8 6.9,-548.8 6.9,-602.5 25.1,-602.5 					"/>
					<polygon id="XMLID_540_" class="st1" points="89.2,-548.8 70.9,-548.8 70.9,-567.1 89.2,-567.1 					"/>
					<polygon id="XMLID_539_" class="st1" points="57.1,-542.3 38.9,-542.3 38.9,-599.2 57.1,-599.2 					"/>
					<polygon id="XMLID_538_" class="st1" points="121.2,-580.9 102.9,-580.9 102.9,-599.2 121.2,-599.2 					"/>
					<polygon id="XMLID_537_" class="st1" points="25.1,-613 6.9,-613 6.9,-631.3 25.1,-631.3 					"/>
					<polygon id="XMLID_536_" class="st1" points="89.2,-613 70.9,-613 70.9,-664.8 89.2,-664.8 					"/>
					<polygon id="XMLID_535_" class="st1" points="57.1,-645.1 38.9,-645.1 38.9,-663.4 57.1,-663.4 					"/>
					<polygon id="XMLID_534_" class="st1" points="121.2,-645.1 102.9,-645.1 102.9,-663.4 121.2,-663.4 					"/>
					<polygon id="XMLID_533_" class="st1" points="25.1,-677.2 6.9,-677.2 6.9,-695.5 25.1,-695.5 					"/>
					<polygon id="XMLID_532_" class="st1" points="89.2,-677.2 70.9,-677.2 70.9,-695.5 89.2,-695.5 					"/>
					<polygon id="XMLID_531_" class="st1" points="57.1,-709.3 38.9,-709.3 38.9,-727.6 57.1,-727.6 					"/>
					<polygon id="XMLID_530_" class="st1" points="121.2,-709.3 102.9,-709.3 102.9,-727.6 121.2,-727.6 					"/>
					<polygon id="XMLID_529_" class="st1" points="260.6,-727.6 242.3,-727.6 242.3,-746 260.6,-746 					"/>
					<polygon id="XMLID_528_" class="st1" points="324.6,-727.6 306.3,-727.6 306.3,-746 324.6,-746 					"/>
					<polygon id="XMLID_527_" class="st1" points="388.6,-727.6 370.3,-727.6 370.3,-746 388.6,-746 					"/>
					<polygon id="XMLID_526_" class="st1" points="452.6,-727.6 434.3,-727.6 434.3,-746 452.6,-746 					"/>
					<polygon id="XMLID_525_" class="st1" points="312.2,-759.7 274.3,-759.7 274.3,-778.1 312.2,-778.1 					"/>
					<polygon id="XMLID_524_" class="st1" points="356.6,-759.7 338.3,-759.7 338.3,-810.2 356.6,-810.2 					"/>
					<polygon id="XMLID_523_" class="st1" points="420.6,-759.7 402.3,-759.7 402.3,-778.1 420.6,-778.1 					"/>
					<polygon id="XMLID_522_" class="st1" points="484.6,-759.7 466.3,-759.7 466.3,-778.1 484.6,-778.1 					"/>
					<polygon id="XMLID_521_" class="st1" points="260.6,-791.8 242.3,-791.8 242.3,-810.2 260.6,-810.2 					"/>
					<polygon id="XMLID_520_" class="st1" points="324.6,-791.8 271.7,-791.8 271.7,-810.2 324.6,-810.2 					"/>
					<polygon id="XMLID_519_" class="st1" points="388.6,-791.8 370.3,-791.8 370.3,-845.6 388.6,-845.6 					"/>
					<polygon id="XMLID_518_" class="st1" points="452.6,-791.8 434.3,-791.8 434.3,-810.2 452.6,-810.2 					"/>
					<polygon id="XMLID_517_" class="st1" points="292.6,-823.9 274.3,-823.9 274.3,-842.3 292.6,-842.3 					"/>
					<polygon id="XMLID_516_" class="st1" points="338.3,-846.6 338.3,-823.9 356.6,-823.9 356.6,-846.6 					"/>
					<polygon id="XMLID_515_" class="st1" points="420.6,-785.3 402.3,-785.3 402.3,-842.3 420.6,-842.3 					"/>
					<polygon id="XMLID_514_" class="st1" points="484.6,-823.9 466.3,-823.9 466.3,-842.3 484.6,-842.3 					"/>
					<polygon id="XMLID_513_" class="st1" points="18.3,-727.6 0,-727.6 0,-746 18.3,-746 					"/>
					<polygon id="XMLID_512_" class="st1" points="82.3,-727.6 64,-727.6 64,-746 82.3,-746 					"/>
					<polygon id="XMLID_511_" class="st1" points="146.3,-727.6 128,-727.6 128,-746 146.3,-746 					"/>
					<polygon id="XMLID_510_" class="st1" points="210.3,-727.6 192,-727.6 192,-746 210.3,-746 					"/>
					<polygon id="XMLID_509_" class="st1" points="69.9,-759.7 32,-759.7 32,-778.1 69.9,-778.1 					"/>
					<polygon id="XMLID_508_" class="st1" points="114.3,-759.7 96,-759.7 96,-810.2 114.3,-810.2 					"/>
					<polygon id="XMLID_507_" class="st1" points="178.3,-759.7 160,-759.7 160,-778.1 178.3,-778.1 					"/>
					<polygon id="XMLID_506_" class="st1" points="242.3,-759.7 224,-759.7 224,-778.1 242.3,-778.1 					"/>
					<polygon id="XMLID_505_" class="st1" points="18.3,-791.8 0,-791.8 0,-810.2 18.3,-810.2 					"/>
					<polygon id="XMLID_504_" class="st1" points="82.3,-791.8 29.4,-791.8 29.4,-810.2 82.3,-810.2 					"/>
					<polygon id="XMLID_503_" class="st1" points="146.3,-791.8 128,-791.8 128,-845.6 146.3,-845.6 					"/>
					<polygon id="XMLID_502_" class="st1" points="210.3,-791.8 192,-791.8 192,-810.2 210.3,-810.2 					"/>
					<polygon id="XMLID_501_" class="st1" points="50.3,-823.9 32,-823.9 32,-842.3 50.3,-842.3 					"/>
					<polygon id="XMLID_500_" class="st1" points="96,-846.6 96,-823.9 114.3,-823.9 114.3,-846.6 					"/>
					<polygon id="XMLID_499_" class="st1" points="178.3,-785.3 160,-785.3 160,-842.3 178.3,-842.3 					"/>
					<polygon id="XMLID_498_" class="st1" points="242.3,-823.9 224,-823.9 224,-842.3 242.3,-842.3 					"/>
					<polygon id="XMLID_497_" class="st1" points="381.8,0 381.8,-16.9 363.5,-16.9 363.5,0 					"/>
					<polygon id="XMLID_496_" class="st1" points="445.8,0 445.8,-16.9 427.5,-16.9 427.5,0 					"/>
					<polygon id="XMLID_495_" class="st1" points="433.4,-30.6 395.5,-30.6 395.5,-49 433.4,-49 					"/>
					<polygon id="XMLID_494_" class="st1" points="477.8,-30.6 459.5,-30.6 459.5,-81.1 477.8,-81.1 					"/>
					<polygon id="XMLID_493_" class="st1" points="381.8,-62.7 363.5,-62.7 363.5,-81.1 381.8,-81.1 					"/>
					<polygon id="XMLID_492_" class="st1" points="445.8,-62.7 392.9,-62.7 392.9,-81.1 445.8,-81.1 					"/>
					<polygon id="XMLID_491_" class="st1" points="413.8,-94.8 395.5,-94.8 395.5,-113.2 413.8,-113.2 					"/>
					<polygon id="XMLID_490_" class="st1" points="477.8,-94.8 459.5,-94.8 459.5,-148.6 477.8,-148.6 					"/>
					<polygon id="XMLID_489_" class="st1" points="381.8,-126.9 363.5,-126.9 363.5,-145.3 381.8,-145.3 					"/>
					<polygon id="XMLID_488_" class="st1" points="445.8,-126.9 427.5,-126.9 427.5,-182 445.8,-182 					"/>
					<polygon id="XMLID_487_" class="st1" points="413.8,-159 395.5,-159 395.5,-177.4 413.8,-177.4 					"/>
					<polygon id="XMLID_486_" class="st1" points="477.8,-159 459.5,-159 459.5,-177.4 477.8,-177.4 					"/>
					<polygon id="XMLID_485_" class="st1" points="381.8,-191.1 363.5,-191.1 363.5,-209.5 381.8,-209.5 					"/>
					<polygon id="XMLID_484_" class="st1" points="478.4,-191.1 427.5,-191.1 427.5,-209.5 478.4,-209.5 					"/>
					<polygon id="XMLID_483_" class="st1" points="413.8,-184.6 395.5,-184.6 395.5,-241.6 413.8,-241.6 					"/>
					<polygon id="XMLID_482_" class="st1" points="477.8,-223.2 459.5,-223.2 459.5,-241.6 477.8,-241.6 					"/>
					<polygon id="XMLID_481_" class="st1" points="139.4,0 139.4,-16.9 121.2,-16.9 121.2,0 					"/>
					<polygon id="XMLID_480_" class="st1" points="203.5,0 203.5,-16.9 185.2,-16.9 185.2,0 					"/>
					<polygon id="XMLID_479_" class="st1" points="267.5,0 267.5,-16.9 249.2,-16.9 249.2,0 					"/>
					<polygon id="XMLID_478_" class="st1" points="331.5,0 331.5,-16.9 313.2,-16.9 313.2,0 					"/>
					<polygon id="XMLID_477_" class="st1" points="191,-30.6 153.2,-30.6 153.2,-49 191,-49 					"/>
					<polygon id="XMLID_476_" class="st1" points="235.5,-30.6 217.2,-30.6 217.2,-81.1 235.5,-81.1 					"/>
					<polygon id="XMLID_475_" class="st1" points="299.5,-30.6 281.2,-30.6 281.2,-49 299.5,-49 					"/>
					<polygon id="XMLID_474_" class="st1" points="363.5,-30.6 345.2,-30.6 345.2,-49 363.5,-49 					"/>
					<polygon id="XMLID_473_" class="st1" points="139.4,-62.7 121.2,-62.7 121.2,-81.1 139.4,-81.1 					"/>
					<polygon id="XMLID_472_" class="st1" points="203.5,-62.7 150.5,-62.7 150.5,-81.1 203.5,-81.1 					"/>
					<polygon id="XMLID_471_" class="st1" points="267.5,-62.7 249.2,-62.7 249.2,-116.5 267.5,-116.5 					"/>
					<polygon id="XMLID_470_" class="st1" points="331.5,-62.7 313.2,-62.7 313.2,-81.1 331.5,-81.1 					"/>
					<polygon id="XMLID_469_" class="st1" points="171.4,-94.8 153.2,-94.8 153.2,-113.2 171.4,-113.2 					"/>
					<polygon id="XMLID_468_" class="st1" points="235.5,-94.8 217.2,-94.8 217.2,-148.6 235.5,-148.6 					"/>
					<polygon id="XMLID_467_" class="st1" points="299.5,-56.2 281.2,-56.2 281.2,-113.2 299.5,-113.2 					"/>
					<polygon id="XMLID_466_" class="st1" points="363.5,-94.8 345.2,-94.8 345.2,-113.2 363.5,-113.2 					"/>
					<polygon id="XMLID_465_" class="st1" points="139.4,-126.9 121.2,-126.9 121.2,-145.3 139.4,-145.3 					"/>
					<polygon id="XMLID_464_" class="st1" points="203.5,-126.9 185.2,-126.9 185.2,-182 203.5,-182 					"/>
					<polygon id="XMLID_463_" class="st1" points="267.5,-126.9 249.2,-126.9 249.2,-145.3 267.5,-145.3 					"/>
					<polygon id="XMLID_462_" class="st1" points="331.5,-126.9 313.2,-126.9 313.2,-178.7 331.5,-178.7 					"/>
					<polygon id="XMLID_461_" class="st1" points="171.4,-159 153.2,-159 153.2,-177.4 171.4,-177.4 					"/>
					<polygon id="XMLID_460_" class="st1" points="235.5,-159 217.2,-159 217.2,-177.4 235.5,-177.4 					"/>
					<polygon id="XMLID_459_" class="st1" points="299.5,-159 281.2,-159 281.2,-177.4 299.5,-177.4 					"/>
					<polygon id="XMLID_458_" class="st1" points="363.5,-159 345.2,-159 345.2,-177.4 363.5,-177.4 					"/>
					<polygon id="XMLID_457_" class="st1" points="139.4,-191.1 121.2,-191.1 121.2,-209.5 139.4,-209.5 					"/>
					<polygon id="XMLID_456_" class="st1" points="236.1,-191.1 185.2,-191.1 185.2,-209.5 236.1,-209.5 					"/>
					<polygon id="XMLID_455_" class="st1" points="267.5,-191.1 249.2,-191.1 249.2,-209.5 267.5,-209.5 					"/>
					<polygon id="XMLID_454_" class="st1" points="331.5,-191.1 313.2,-191.1 313.2,-209.5 331.5,-209.5 					"/>
					<polygon id="XMLID_453_" class="st1" points="171.4,-184.6 153.2,-184.6 153.2,-241.6 171.4,-241.6 					"/>
					<polygon id="XMLID_452_" class="st1" points="235.5,-223.2 217.2,-223.2 217.2,-241.6 235.5,-241.6 					"/>
					<polygon id="XMLID_451_" class="st1" points="299.5,-223.2 281.2,-223.2 281.2,-241.6 299.5,-241.6 					"/>
					<polygon id="XMLID_450_" class="st1" points="363.5,-223.2 345.2,-223.2 345.2,-241.6 363.5,-241.6 					"/>
					<polygon id="XMLID_449_" class="st1" points="25.1,0 25.1,-16.9 6.9,-16.9 6.9,0 					"/>
					<polygon id="XMLID_448_" class="st1" points="89.2,0 89.2,-16.9 70.9,-16.9 70.9,0 					"/>
					<polygon id="XMLID_447_" class="st1" points="57.1,-30.6 38.9,-30.6 38.9,-49 57.1,-49 					"/>
					<polygon id="XMLID_446_" class="st1" points="121.2,-30.6 102.9,-30.6 102.9,-49 121.2,-49 					"/>
					<polygon id="XMLID_445_" class="st1" points="25.1,-62.7 6.9,-62.7 6.9,-116.5 25.1,-116.5 					"/>
					<polygon id="XMLID_444_" class="st1" points="89.2,-62.7 70.9,-62.7 70.9,-81.1 89.2,-81.1 					"/>
					<polygon id="XMLID_443_" class="st1" points="57.1,-56.2 38.9,-56.2 38.9,-113.2 57.1,-113.2 					"/>
					<polygon id="XMLID_442_" class="st1" points="121.2,-94.8 102.9,-94.8 102.9,-113.2 121.2,-113.2 					"/>
					<polygon id="XMLID_441_" class="st1" points="25.1,-126.9 6.9,-126.9 6.9,-145.3 25.1,-145.3 					"/>
					<polygon id="XMLID_440_" class="st1" points="89.2,-126.9 70.9,-126.9 70.9,-178.7 89.2,-178.7 					"/>
					<polygon id="XMLID_439_" class="st1" points="57.1,-159 38.9,-159 38.9,-177.4 57.1,-177.4 					"/>
					<polygon id="XMLID_438_" class="st1" points="121.2,-159 102.9,-159 102.9,-177.4 121.2,-177.4 					"/>
					<polygon id="XMLID_437_" class="st1" points="25.1,-191.1 6.9,-191.1 6.9,-209.5 25.1,-209.5 					"/>
					<polygon id="XMLID_436_" class="st1" points="89.2,-191.1 70.9,-191.1 70.9,-209.5 89.2,-209.5 					"/>
					<polygon id="XMLID_435_" class="st1" points="57.1,-223.2 38.9,-223.2 38.9,-241.6 57.1,-241.6 					"/>
					<polygon id="XMLID_434_" class="st1" points="121.2,-223.2 102.9,-223.2 102.9,-241.6 121.2,-241.6 					"/>
					<polygon id="XMLID_433_" class="st1" points="260.6,-241.6 242.3,-241.6 242.3,-259.9 260.6,-259.9 					"/>
					<polygon id="XMLID_432_" class="st1" points="324.6,-241.6 306.3,-241.6 306.3,-259.9 324.6,-259.9 					"/>
					<polygon id="XMLID_431_" class="st1" points="388.6,-241.6 370.3,-241.6 370.3,-259.9 388.6,-259.9 					"/>
					<polygon id="XMLID_430_" class="st1" points="452.6,-241.6 434.3,-241.6 434.3,-259.9 452.6,-259.9 					"/>
					<polygon id="XMLID_429_" class="st1" points="312.2,-273.7 274.3,-273.7 274.3,-292 312.2,-292 					"/>
					<polygon id="XMLID_428_" class="st1" points="356.6,-273.7 338.3,-273.7 338.3,-324.1 356.6,-324.1 					"/>
					<polygon id="XMLID_427_" class="st1" points="420.6,-273.7 402.3,-273.7 402.3,-292 420.6,-292 					"/>
					<polygon id="XMLID_426_" class="st1" points="484.6,-273.7 466.3,-273.7 466.3,-292 484.6,-292 					"/>
					<polygon id="XMLID_425_" class="st1" points="260.6,-305.8 242.3,-305.8 242.3,-324.1 260.6,-324.1 					"/>
					<polygon id="XMLID_424_" class="st1" points="324.6,-305.8 271.7,-305.8 271.7,-324.1 324.6,-324.1 					"/>
					<polygon id="XMLID_423_" class="st1" points="388.6,-305.8 370.3,-305.8 370.3,-359.5 388.6,-359.5 					"/>
					<polygon id="XMLID_422_" class="st1" points="452.6,-305.8 434.3,-305.8 434.3,-324.1 452.6,-324.1 					"/>
					<polygon id="XMLID_421_" class="st1" points="292.6,-337.9 274.3,-337.9 274.3,-356.2 292.6,-356.2 					"/>
					<polygon id="XMLID_420_" class="st1" points="356.6,-337.9 338.3,-337.9 338.3,-391.6 356.6,-391.6 					"/>
					<polygon id="XMLID_419_" class="st1" points="420.6,-299.2 402.3,-299.2 402.3,-356.2 420.6,-356.2 					"/>
					<polygon id="XMLID_418_" class="st1" points="484.6,-337.9 466.3,-337.9 466.3,-356.2 484.6,-356.2 					"/>
					<polygon id="XMLID_417_" class="st1" points="18.3,-241.6 0,-241.6 0,-259.9 18.3,-259.9 					"/>
					<polygon id="XMLID_416_" class="st1" points="82.3,-241.6 64,-241.6 64,-259.9 82.3,-259.9 					"/>
					<polygon id="XMLID_415_" class="st1" points="146.3,-241.6 128,-241.6 128,-259.9 146.3,-259.9 					"/>
					<polygon id="XMLID_414_" class="st1" points="210.3,-241.6 192,-241.6 192,-259.9 210.3,-259.9 					"/>
					<polygon id="XMLID_413_" class="st1" points="69.9,-273.7 32,-273.7 32,-292 69.9,-292 					"/>
					<polygon id="XMLID_412_" class="st1" points="114.3,-273.7 96,-273.7 96,-324.1 114.3,-324.1 					"/>
					<polygon id="XMLID_411_" class="st1" points="178.3,-273.7 160,-273.7 160,-292 178.3,-292 					"/>
					<polygon id="XMLID_410_" class="st1" points="242.3,-273.7 224,-273.7 224,-292 242.3,-292 					"/>
					<polygon id="XMLID_409_" class="st1" points="18.3,-305.8 0,-305.8 0,-324.1 18.3,-324.1 					"/>
					<polygon id="XMLID_408_" class="st1" points="82.3,-305.8 29.4,-305.8 29.4,-324.1 82.3,-324.1 					"/>
					<polygon id="XMLID_407_" class="st1" points="146.3,-305.8 128,-305.8 128,-359.5 146.3,-359.5 					"/>
					<polygon id="XMLID_406_" class="st1" points="210.3,-305.8 192,-305.8 192,-324.1 210.3,-324.1 					"/>
					<polygon id="XMLID_405_" class="st1" points="50.3,-337.9 32,-337.9 32,-356.2 50.3,-356.2 					"/>
					<polygon id="XMLID_404_" class="st1" points="114.3,-337.9 96,-337.9 96,-391.6 114.3,-391.6 					"/>
					<polygon id="XMLID_403_" class="st1" points="178.3,-299.2 160,-299.2 160,-356.2 178.3,-356.2 					"/>
					<polygon id="XMLID_402_" class="st1" points="242.3,-337.9 224,-337.9 224,-356.2 242.3,-356.2 					"/>
				</g>
			</g>
		</g>
	</g>
</pattern>
<pattern  id="XMLID_800_" xlink:href="#XMLID_801_" patternTransform="matrix(0.5 0 0 0.5 -5044.644 5601.981)">
</pattern>
<rect id="XMLID_1241_" class="st2" width="1920" height="1080"/>
</svg>
