<?xml version="1.0" encoding="utf-8"?>
<!-- Generator: Adobe Illustrator 16.0.0, SVG Export Plug-In . SVG Version: 6.00 Build 0)  -->
<!DOCTYPE svg PUBLIC "-//W3C//DTD SVG 1.1//EN" "http://www.w3.org/Graphics/SVG/1.1/DTD/svg11.dtd">
<svg version="1.1" id="Layer_1" xmlns="http://www.w3.org/2000/svg" xmlns:xlink="http://www.w3.org/1999/xlink" x="0px" y="0px"
	 width="330.457px" height="96.363px" viewBox="0 0 330.457 96.363" enable-background="new 0 0 330.457 96.363"
	 xml:space="preserve">
<g>
	<g>
		<polygon fill="#FFCD09" points="17.003,17.246 17.003,34.924 17.003,61.437 17.003,79.115 34.68,79.115 74.798,79.115 
			74.798,61.761 34.262,61.761 34.262,34.763 74.798,34.763 74.798,17.246 34.68,17.246 		"/>
		<polygon fill="#F58220" points="17.003,0 0,17.246 0,79.115 17.003,96.363 74.798,96.363 74.798,79.761 74.798,79.115 
			34.68,79.115 17.003,79.115 17.003,61.437 17.003,34.924 17.003,17.246 34.68,17.246 74.798,17.246 74.798,16.761 74.798,0 		"/>
	</g>
	<g>
		<g>
			<path fill="none" d="M205.736,32.09c-0.441-0.723-1.025-1.299-1.75-1.729c-0.725-0.434-1.6-0.646-2.629-0.646
				c-3.777-0.027-5.67,2.643-5.67,8.008c0,1.059,0.105,2.07,0.312,3.043c0.209,0.977,0.533,1.822,0.979,2.543
				c0.445,0.727,1.029,1.311,1.752,1.754c0.725,0.443,1.6,0.666,2.627,0.666c3.781,0.029,5.672-2.641,5.672-8.006
				c0-1.086-0.104-2.111-0.311-3.086C206.508,33.661,206.181,32.812,205.736,32.09z"/>
			<path fill="none" d="M182.582,29.838c-1.916,0-3.418,0.633-4.504,1.896c-1.084,1.267-1.625,3.288-1.625,6.067
				c0,1.142,0.09,2.197,0.27,3.172s0.48,1.809,0.896,2.5c0.416,0.697,0.965,1.246,1.646,1.648c0.68,0.4,1.508,0.604,2.482,0.604
				c1.418,0,2.543-0.366,3.377-1.104c0.834-0.738,1.4-1.857,1.709-3.357V30.922c-0.498-0.389-1.07-0.668-1.709-0.834
				C184.484,29.922,183.638,29.838,182.582,29.838z"/>
			<path fill="none" d="M248.994,29.526c-4.297,0-6.174,4.003-6.174,7.798c0,4.422,2.502,7.756,6.09,7.756
				c3.504,0,6.131-3.295,6.131-7.84C255.041,33.822,253.332,29.526,248.994,29.526z"/>
			<path fill="none" d="M120.513,36.72c-1.252,0-2.516,0.049-3.795,0.146c-1.279,0.097-2.189,0.508-2.732,1.229
				c-0.541,0.725-0.812,1.434-0.812,2.127c0,0.975,0.348,1.771,1.043,2.398c0.693,0.625,1.584,0.938,2.67,0.938
				c0.777,0,1.568-0.104,2.375-0.312s1.432-0.475,1.877-0.793s0.814-0.674,1.105-1.062c0.293-0.389,0.508-0.766,0.646-1.127v-3.463
				c-0.389-0.023-0.785-0.047-1.188-0.061C121.299,36.728,120.902,36.72,120.513,36.72z"/>
			<path fill="none" d="M155.521,36.72c-1.25,0-2.516,0.049-3.793,0.146c-1.281,0.098-2.188,0.508-2.73,1.229
				c-0.543,0.724-0.814,1.434-0.814,2.127c0,0.975,0.348,1.771,1.045,2.398c0.693,0.625,1.584,0.938,2.668,0.938
				c0.777,0,1.57-0.104,2.377-0.312c0.809-0.208,1.434-0.475,1.877-0.793s0.812-0.674,1.104-1.062s0.507-0.766,0.646-1.127v-3.463
				c-0.39-0.023-0.786-0.047-1.187-0.061C156.306,36.728,155.913,36.72,155.521,36.72z"/>
			<path fill="none" d="M269.844,29.651c-3.795,0-6.047,3.337-6.047,7.757c0,4.086,2.043,7.465,5.963,7.465
				c2.461,0,4.711-1.67,5.379-4.379c0.125-0.5,0.166-1.002,0.166-1.584v-3.504c0-0.459-0.041-1.084-0.166-1.543
				C274.597,31.57,272.595,29.651,269.844,29.651z"/>
			<path fill="none" d="M320.658,29.526c-4.295,0-6.172,4.003-6.172,7.798c0,4.422,2.502,7.756,6.088,7.756
				c3.504,0,6.131-3.295,6.131-7.84C326.705,33.822,324.994,29.526,320.658,29.526z"/>
			<path fill="none" d="M299.416,29.607c-3.502,0-6.004,2.963-6.004,7.633c0,3.963,2.043,7.256,5.963,7.256
				c2.293,0,4.336-1.418,5.088-3.752c0.207-0.625,0.291-1.334,0.291-1.961v-3.627c0-0.625-0.041-1.168-0.209-1.627
				C303.877,31.361,302.127,29.607,299.416,29.607z"/>
			<path fill="#FFFFFF" d="M105.394,45.185c-0.932,0.25-2.021,0.375-3.271,0.375c-1.393,0-2.68-0.25-3.859-0.75
				c-1.182-0.502-2.209-1.252-3.086-2.252c-0.875-1.002-1.562-2.254-2.062-3.756c-0.502-1.498-0.752-3.25-0.752-5.252
				c0-2.225,0.266-4.102,0.793-5.631c0.527-1.527,1.23-2.766,2.105-3.711c0.877-0.945,1.869-1.627,2.982-2.045
				c1.109-0.416,2.236-0.625,3.379-0.625c2.473,0,4.379,0.316,5.711,0.959l1.795-2.752c-1.393-0.5-2.613-0.842-3.67-1.021
				c-1.059-0.182-2.418-0.271-4.088-0.271c-1.559,0-3.086,0.275-4.586,0.834c-1.504,0.557-2.857,1.438-4.066,2.646
				c-1.211,1.209-2.184,2.77-2.92,4.67c-0.736,1.906-1.105,4.223-1.105,6.945c0,2.611,0.334,4.871,1.002,6.775
				c0.666,1.902,1.57,3.469,2.711,4.689c1.141,1.227,2.477,2.136,4.002,2.732c1.529,0.596,3.172,0.896,4.924,0.896
				c1.443,0,2.807-0.125,4.088-0.375c1.275-0.25,2.652-0.943,4.129-2.086l-1.795-1.959
				C107.111,44.617,106.327,44.935,105.394,45.185z"/>
			<path fill="#FFFFFF" d="M235.209,44.411c-0.934,0.25-2.021,0.377-3.273,0.377c-1.393,0-2.678-0.25-3.855-0.75
				c-1.186-0.502-2.211-1.252-3.086-2.254c-0.877-1-1.564-2.252-2.064-3.754c-0.5-1.5-0.75-3.252-0.75-5.255
				c0-2.224,0.262-4.101,0.791-5.63c0.527-1.527,1.23-2.766,2.105-3.713c0.875-0.941,1.867-1.627,2.98-2.043
				c1.111-0.418,2.236-0.625,3.379-0.625c2.475,0,4.377,0.318,5.713,0.959l1.793-2.754c-1.391-0.5-2.613-0.84-3.67-1.02
				c-1.057-0.184-2.418-0.271-4.086-0.271c-1.559,0-3.086,0.277-4.588,0.834c-1.502,0.559-2.855,1.438-4.068,2.648
				c-1.207,1.209-2.182,2.766-2.918,4.67c-0.734,1.903-1.104,4.221-1.104,6.941c0,2.613,0.334,4.873,1.002,6.777
				s1.57,3.469,2.709,4.691c1.141,1.225,2.475,2.135,4.004,2.73s3.17,0.896,4.922,0.896c1.445,0,2.811-0.125,4.088-0.377
				c1.277-0.25,2.654-0.945,4.129-2.084l-1.795-1.959C236.926,43.842,236.14,44.161,235.209,44.411z"/>
			<path fill="#FFFFFF" d="M126.583,45.748c-0.375-0.959-0.564-1.953-0.564-2.982c0-1.418,0.043-2.918,0.125-4.504
				c0.086-1.584,0.125-3.211,0.125-4.879c0-0.75-0.076-1.5-0.229-2.252c-0.152-0.75-0.459-1.438-0.918-2.063
				c-0.457-0.625-1.125-1.134-2-1.521c-0.877-0.389-2.037-0.584-3.482-0.584c-1.529,0-2.996,0.152-4.4,0.457
				c-1.402,0.307-2.635,0.779-3.689,1.418l1.043,2.504c0.389-0.223,0.84-0.424,1.354-0.604c0.515-0.181,1.059-0.334,1.627-0.459
				c0.57-0.125,1.125-0.225,1.67-0.291c0.539-0.07,1.049-0.104,1.521-0.104c1.613,0,2.725,0.305,3.336,0.916
				c0.611,0.613,0.918,1.682,0.918,3.211c0,0.668-0.041,1.418-0.125,2.252c-0.389-0.055-0.771-0.082-1.146-0.082s-0.76,0-1.148,0
				c-1.918,0-3.738,0.104-5.461,0.312c-1.725,0.209-3.061,0.965-4.004,2.271c-0.945,1.311-1.418,2.574-1.418,3.797
				c0,0.916,0.158,1.736,0.479,2.459c0.321,0.725,0.76,1.344,1.314,1.857c0.555,0.516,1.217,0.91,1.979,1.188
				c0.768,0.277,1.594,0.418,2.482,0.418s1.779-0.1,2.668-0.293c0.891-0.191,1.598-0.438,2.127-0.729
				c0.527-0.293,0.98-0.627,1.355-1.002s0.688-0.756,0.938-1.146h0.207c0.584,1.945,1.307,2.918,2.168,2.918h2.961
				C127.562,47.536,126.958,46.707,126.583,45.748z M122.89,42.265c-0.139,0.361-0.354,0.738-0.646,1.127
				c-0.291,0.391-0.66,0.744-1.105,1.062s-1.07,0.584-1.877,0.793s-1.598,0.312-2.375,0.312c-1.086,0-1.977-0.312-2.67-0.938
				c-0.695-0.627-1.043-1.426-1.043-2.398c0-0.693,0.271-1.402,0.812-2.127c0.543-0.723,1.453-1.133,2.732-1.229
				c1.279-0.099,2.543-0.146,3.795-0.146c0.389,0,0.785,0.008,1.189,0.021c0.4,0.014,0.799,0.035,1.188,0.061V42.265z"/>
			<path fill="#FFFFFF" d="M140.636,37.427c-0.738-0.5-1.543-0.901-2.42-1.209c-0.875-0.305-1.682-0.619-2.418-0.938
				c-0.736-0.32-1.355-0.684-1.855-1.084c-0.5-0.402-0.752-0.969-0.752-1.689c0-1.029,0.287-1.752,0.855-2.17
				c0.57-0.416,1.467-0.625,2.688-0.625c1.029,0,1.996,0.119,2.898,0.354c0.904,0.235,1.676,0.509,2.314,0.812l0.791-2.752
				c-0.75-0.361-1.633-0.676-2.646-0.939c-1.016-0.264-2.273-0.396-3.775-0.396c-2.027,0-3.613,0.467-4.754,1.396
				c-1.141,0.934-1.711,2.396-1.711,4.398c0,1.225,0.25,2.197,0.752,2.92c0.5,0.723,1.117,1.312,1.855,1.773
				c0.734,0.459,1.543,0.834,2.418,1.125c0.877,0.293,1.684,0.598,2.42,0.916c0.736,0.32,1.354,0.717,1.854,1.188
				c0.5,0.473,0.75,1.127,0.75,1.961c0,1.227-0.389,2.07-1.168,2.543c-0.775,0.475-1.766,0.709-2.961,0.709
				c-1.057,0-2.098-0.15-3.127-0.459c-1.027-0.305-1.861-0.639-2.502-1l-1.002,2.836c0.752,0.418,1.684,0.779,2.795,1.084
				c1.111,0.309,2.461,0.459,4.045,0.459c1.225,0,2.287-0.159,3.191-0.479c0.901-0.318,1.66-0.756,2.271-1.312
				c0.611-0.556,1.064-1.223,1.355-2.002c0.293-0.777,0.438-1.611,0.438-2.502c0-1.252-0.25-2.26-0.75-3.023
				C141.993,38.56,141.374,37.927,140.636,37.427z"/>
			<path fill="#FFFFFF" d="M161.59,45.748c-0.373-0.959-0.562-1.953-0.562-2.982c0-1.418,0.041-2.918,0.125-4.504
				c0.084-1.584,0.125-3.211,0.125-4.879c0-0.75-0.074-1.5-0.229-2.252c-0.154-0.75-0.459-1.438-0.918-2.063
				s-1.125-1.134-2.002-1.521s-2.037-0.584-3.482-0.584c-1.527,0-2.996,0.152-4.396,0.457c-1.404,0.307-2.637,0.779-3.691,1.418
				l1.041,2.504c0.391-0.223,0.842-0.424,1.357-0.604c0.512-0.182,1.057-0.334,1.625-0.459s1.127-0.225,1.668-0.291
				c0.543-0.07,1.051-0.104,1.521-0.104c1.611,0,2.727,0.305,3.336,0.916c0.611,0.613,0.918,1.682,0.918,3.211
				c0,0.668-0.043,1.418-0.125,2.252c-0.391-0.055-0.771-0.082-1.146-0.082c-0.377,0-0.76,0-1.148,0
				c-1.918,0-3.738,0.104-5.463,0.312c-1.725,0.209-3.059,0.965-4.004,2.271c-0.945,1.311-1.418,2.574-1.418,3.797
				c0,0.916,0.16,1.736,0.48,2.459c0.316,0.725,0.758,1.344,1.312,1.857c0.557,0.516,1.217,0.91,1.982,1.188
				c0.764,0.277,1.59,0.418,2.479,0.418s1.779-0.1,2.67-0.293c0.891-0.191,1.6-0.438,2.127-0.729
				c0.527-0.293,0.98-0.627,1.355-1.002c0.373-0.375,0.688-0.756,0.938-1.146h0.209c0.584,1.945,1.309,2.918,2.168,2.918h2.961
				C162.57,47.536,161.967,46.707,161.59,45.748z M157.9,42.265c-0.141,0.361-0.354,0.738-0.646,1.127
				c-0.291,0.391-0.66,0.744-1.104,1.062c-0.443,0.318-1.068,0.584-1.877,0.793c-0.807,0.209-1.6,0.312-2.377,0.312
				c-1.084,0-1.975-0.312-2.668-0.938c-0.697-0.627-1.045-1.426-1.045-2.398c0-0.693,0.271-1.402,0.814-2.127
				c0.543-0.723,1.449-1.133,2.73-1.229c1.277-0.1,2.543-0.146,3.793-0.146c0.393,0,0.785,0.008,1.189,0.021
				c0.4,0.014,0.799,0.035,1.187,0.061v3.463L157.9,42.265L157.9,42.265z"/>
			<path fill="#FFFFFF" d="M190.17,40.974V18.953h-3.336v8.674c-0.695-0.248-1.342-0.43-1.938-0.541
				c-0.6-0.111-1.412-0.168-2.439-0.168c-2.945,0-5.262,0.926-6.943,2.771c-1.684,1.852-2.521,4.557-2.521,8.111
				c0,3.729,0.674,6.465,2.021,8.217c1.35,1.752,3.412,2.627,6.193,2.627c1.418,0,2.652-0.318,3.711-0.959
				c1.057-0.639,1.861-1.443,2.418-2.42h0.168l0.834,2.961h2.252c-0.225-1.107-0.352-2.243-0.375-3.396
				C190.183,43.677,190.17,42.39,190.17,40.974z M186.836,41.265c-0.309,1.5-0.875,2.619-1.709,3.357
				c-0.834,0.735-1.959,1.104-3.377,1.104c-0.977,0-1.803-0.2-2.482-0.604c-0.68-0.404-1.229-0.951-1.646-1.648
				c-0.418-0.691-0.719-1.525-0.896-2.5c-0.182-0.975-0.27-2.029-0.27-3.172c0-2.779,0.541-4.803,1.625-6.066
				c1.086-1.266,2.588-1.896,4.504-1.896c1.059,0,1.904,0.084,2.545,0.25c0.639,0.166,1.211,0.445,1.709,0.834v10.343
				L186.836,41.265L186.836,41.265z"/>
			<path fill="#FFFFFF" d="M208.279,29.776c-0.75-0.959-1.701-1.694-2.854-2.212c-1.154-0.514-2.51-0.771-4.066-0.771
				c-2.943,0-5.205,0.938-6.775,2.815s-2.355,4.579-2.355,8.11c0,1.643,0.182,3.133,0.541,4.482c0.361,1.349,0.918,2.502,1.67,3.461
				c0.752,0.961,1.703,1.694,2.855,2.211c1.152,0.514,2.51,0.771,4.064,0.771c2.947,0,5.205-0.938,6.775-2.812
				c1.572-1.877,2.359-4.58,2.359-8.111c0-1.641-0.184-3.135-0.543-4.482C209.586,31.888,209.031,30.736,208.279,29.776z
				 M201.357,45.726c-1.027,0-1.902-0.223-2.627-0.666c-0.723-0.443-1.307-1.027-1.752-1.754c-0.443-0.721-0.77-1.566-0.979-2.543
				c-0.209-0.973-0.312-1.984-0.312-3.043c0-5.365,1.893-8.035,5.67-8.008c1.029,0,1.904,0.215,2.629,0.646
				c0.725,0.433,1.309,1.009,1.75,1.729c0.445,0.723,0.771,1.57,0.98,2.545c0.207,0.973,0.312,2,0.312,3.086
				C207.029,43.086,205.138,45.756,201.357,45.726z"/>
			<polygon fill="#FFFFFF" points="254.414,18.474 250.369,18.474 246.742,24.437 249.328,24.437 			"/>
			<path fill="#FFFFFF" d="M249.078,26.773c-5.549,0-10.01,3.963-10.01,10.676c0,6.381,4.252,10.383,9.676,10.383
				c4.836,0,10.049-3.252,10.049-10.717C258.793,30.986,254.873,26.773,249.078,26.773z M248.91,45.078
				c-3.588,0-6.09-3.334-6.09-7.756c0-3.796,1.877-7.799,6.174-7.799c4.338,0,6.047,4.297,6.047,7.715
				C255.041,41.785,252.414,45.078,248.91,45.078z"/>
			<path fill="#FFFFFF" d="M278.933,17.765h-3.629v12.052h-0.082c-0.918-1.585-2.961-3.044-6.088-3.044
				c-4.879,0-9.092,4.088-9.049,10.801c0,6.131,3.795,10.258,8.672,10.258c3.295,0,5.713-1.709,6.797-3.961h0.127l0.166,3.504h3.252
				c-0.082-1.377-0.166-3.42-0.166-5.213V17.765z M275.304,38.91c0,0.582-0.041,1.084-0.166,1.584
				c-0.668,2.709-2.918,4.379-5.379,4.379c-3.92,0-5.963-3.379-5.963-7.465c0-4.42,2.252-7.757,6.047-7.757
				c2.752,0,4.754,1.919,5.295,4.212c0.125,0.459,0.166,1.084,0.166,1.543V38.91z"/>
			<path fill="#FFFFFF" d="M305.211,30.236h-0.084c-0.916-1.672-2.793-3.463-6.297-3.463c-4.67,0-9.133,3.838-9.133,10.676
				c0,5.588,3.588,9.842,8.592,9.842c3.127,0,5.338-1.502,6.422-3.379h0.082v2.211c0,5.127-2.752,7.086-6.504,7.086
				c-2.502,0-4.588-0.75-5.922-1.625l-0.92,2.836c1.629,1.084,4.297,1.668,6.717,1.668c2.543,0,5.379-0.627,7.381-2.418
				c1.918-1.795,2.877-4.588,2.877-9.256V32.695c0-2.419,0.041-4.088,0.166-5.506h-3.252L305.211,30.236z M304.752,38.783
				c0,0.627-0.084,1.336-0.291,1.961c-0.752,2.334-2.795,3.752-5.088,3.752c-3.92,0-5.963-3.293-5.963-7.256
				c0-4.67,2.502-7.633,6.004-7.633c2.711,0,4.463,1.754,5.129,3.922c0.168,0.459,0.209,1.002,0.209,1.627V38.783z"/>
			<path fill="#FFFFFF" d="M320.742,26.773c-5.547,0-10.008,3.963-10.008,10.676c0,6.381,4.252,10.383,9.674,10.383
				c4.836,0,10.049-3.252,10.049-10.717C330.457,30.986,326.537,26.773,320.742,26.773z M320.574,45.078
				c-3.586,0-6.088-3.334-6.088-7.756c0-3.796,1.877-7.799,6.172-7.799c4.336,0,6.047,4.297,6.047,7.715
				C326.705,41.785,324.078,45.078,320.574,45.078z"/>
			<path fill="#FFFFFF" d="M284.414,19.224c-1.375,0-2.293,1.043-2.293,2.293c0,1.252,0.875,2.252,2.209,2.252
				c1.461,0,2.336-1,2.336-2.252C286.666,20.226,285.748,19.224,284.414,19.224z"/>
			<rect x="282.578" y="27.189" fill="#FFFFFF" width="3.67" height="20.186"/>
		</g>
		<g>
			<path fill="#FFFFFF" d="M90.62,60.142h1.848v12.619h6.047v1.533H90.62V60.142z"/>
			<path fill="#FFFFFF" d="M106.748,61.277c0,0.629-0.44,1.133-1.178,1.133c-0.672,0-1.11-0.504-1.11-1.133
				c0-0.631,0.461-1.154,1.152-1.154C106.286,60.123,106.748,60.627,106.748,61.277z M104.689,74.295V64.133h1.85v10.162H104.689z"
				/>
			<path fill="#FFFFFF" d="M114.517,64.133l1.994,5.689c0.336,0.943,0.609,1.783,0.818,2.625h0.062
				c0.231-0.842,0.524-1.682,0.86-2.625l1.975-5.689h1.934l-3.99,10.162h-1.766l-3.861-10.162H114.517z"/>
			<path fill="#FFFFFF" d="M128.103,67.302c0-1.197-0.021-2.225-0.084-3.17h1.617l0.084,2.016h0.062
				c0.465-1.365,1.598-2.227,2.837-2.227c0.188,0,0.336,0.02,0.504,0.043v1.742c-0.188-0.041-0.378-0.041-0.63-0.041
				c-1.304,0-2.228,0.965-2.479,2.352c-0.042,0.252-0.062,0.566-0.062,0.859v5.418h-1.85L128.103,67.302L128.103,67.302z"/>
			<path fill="#FFFFFF" d="M148.158,69.129c0,3.76-2.625,5.395-5.062,5.395c-2.729,0-4.871-2.016-4.871-5.229
				c0-3.379,2.246-5.375,5.039-5.375C146.183,63.922,148.158,66.043,148.158,69.129z M140.118,69.234
				c0,2.227,1.26,3.906,3.063,3.906c1.764,0,3.086-1.66,3.086-3.947c0-1.723-0.86-3.885-3.044-3.885
				C141.06,65.308,140.118,67.324,140.118,69.234z"/>
			<path fill="#FFFFFF" d="M154.437,72.426c0.567,0.336,1.533,0.715,2.457,0.715c1.322,0,1.953-0.652,1.953-1.512
				c0-0.883-0.525-1.344-1.869-1.848c-1.848-0.674-2.709-1.66-2.709-2.877c0-1.641,1.344-2.982,3.506-2.982
				c1.029,0,1.934,0.273,2.48,0.631l-0.441,1.344c-0.396-0.252-1.133-0.609-2.078-0.609c-1.092,0-1.68,0.631-1.68,1.389
				c0,0.84,0.588,1.217,1.91,1.74c1.742,0.65,2.666,1.533,2.666,3.045c0,1.807-1.406,3.064-3.778,3.064
				c-1.11,0-2.142-0.293-2.854-0.713L154.437,72.426z"/>
			<path fill="#FFFFFF" d="M176.886,69.549c0.041,2.5,1.617,3.527,3.484,3.527c1.322,0,2.143-0.23,2.812-0.523l0.336,1.322
				c-0.648,0.293-1.785,0.648-3.4,0.648c-3.127,0-4.996-2.076-4.996-5.146c0-3.062,1.805-5.459,4.766-5.459
				c3.338,0,4.199,2.898,4.199,4.77c0,0.377-0.021,0.648-0.062,0.859L176.886,69.549L176.886,69.549z M182.302,68.226
				c0.021-1.154-0.482-2.98-2.561-2.98c-1.893,0-2.688,1.699-2.834,2.98H182.302z"/>
			<path fill="#FFFFFF" d="M201.121,61.697h-4.305v-1.555h10.479v1.555h-4.326v12.598h-1.848V61.697L201.121,61.697z"/>
			<path fill="#FFFFFF" d="M212.543,69.549c0.043,2.5,1.617,3.527,3.484,3.527c1.322,0,2.143-0.23,2.812-0.523l0.336,1.322
				c-0.65,0.293-1.783,0.648-3.4,0.648c-3.129,0-4.998-2.076-4.998-5.146c0-3.062,1.809-5.459,4.77-5.459
				c3.338,0,4.199,2.898,4.199,4.77c0,0.377-0.021,0.648-0.064,0.859L212.543,69.549L212.543,69.549z M217.961,68.226
				c0.021-1.154-0.482-2.98-2.562-2.98c-1.889,0-2.688,1.699-2.834,2.98H217.961z"/>
			<path fill="#FFFFFF" d="M233.478,73.937c-0.48,0.23-1.553,0.588-2.918,0.588c-3.062,0-5.061-2.078-5.061-5.186
				c0-3.129,2.143-5.418,5.459-5.418c1.092,0,2.059,0.273,2.562,0.547l-0.42,1.406c-0.439-0.23-1.135-0.482-2.143-0.482
				c-2.33,0-3.59,1.742-3.59,3.842c0,2.352,1.512,3.801,3.525,3.801c1.051,0,1.742-0.252,2.27-0.48L233.478,73.937z"/>
			<path fill="#FFFFFF" d="M239.844,66.883c0-1.07-0.021-1.91-0.084-2.75h1.639l0.105,1.68h0.043
				c0.504-0.945,1.68-1.891,3.357-1.891c1.406,0,3.592,0.84,3.592,4.326v6.047h-1.85v-5.857c0-1.639-0.607-3.004-2.352-3.004
				c-1.197,0-2.143,0.861-2.479,1.891c-0.084,0.23-0.127,0.545-0.127,0.861v6.109h-1.848L239.844,66.883L239.844,66.883z"/>
			<path fill="#FFFFFF" d="M264.894,69.129c0,3.76-2.625,5.395-5.061,5.395c-2.729,0-4.871-2.016-4.871-5.229
				c0-3.379,2.248-5.375,5.039-5.375C262.922,63.922,264.894,66.043,264.894,69.129z M256.853,69.234
				c0,2.227,1.26,3.906,3.064,3.906c1.764,0,3.088-1.66,3.088-3.947c0-1.723-0.861-3.885-3.045-3.885
				C257.799,65.308,256.853,67.324,256.853,69.234z"/>
			<path fill="#FFFFFF" d="M271.427,59.386h1.848v14.908h-1.848V59.386z"/>
			<path fill="#FFFFFF" d="M289.779,69.129c0,3.76-2.625,5.395-5.061,5.395c-2.729,0-4.871-2.016-4.871-5.229
				c0-3.379,2.248-5.375,5.039-5.375C287.806,63.922,289.779,66.043,289.779,69.129z M281.738,69.234
				c0,2.227,1.262,3.906,3.064,3.906c1.764,0,3.088-1.66,3.088-3.947c0-1.723-0.861-3.885-3.045-3.885
				C282.683,65.308,281.738,67.324,281.738,69.234z"/>
			<path fill="#FFFFFF" d="M305.006,72.804c0,2.352-0.482,3.758-1.449,4.66c-1.008,0.902-2.436,1.219-3.717,1.219
				c-1.217,0-2.562-0.295-3.381-0.84l0.463-1.428c0.672,0.438,1.721,0.816,2.979,0.816c1.893,0,3.275-0.984,3.275-3.568v-1.111
				h-0.041c-0.547,0.943-1.658,1.699-3.234,1.699c-2.52,0-4.322-2.141-4.322-4.955c0-3.443,2.246-5.375,4.598-5.375
				c1.766,0,2.709,0.904,3.17,1.744h0.043l0.062-1.533h1.639c-0.062,0.713-0.084,1.553-0.084,2.771V72.804z M303.16,68.142
				c0-0.314-0.021-0.588-0.105-0.818c-0.336-1.092-1.219-1.975-2.582-1.975c-1.764,0-3.023,1.492-3.023,3.844
				c0,1.994,1.027,3.652,3.004,3.652c1.152,0,2.184-0.713,2.561-1.889c0.105-0.316,0.148-0.672,0.148-0.988L303.16,68.142
				L303.16,68.142z"/>
			<path fill="#FFFFFF" d="M314.183,61.277c0,0.629-0.439,1.133-1.176,1.133c-0.672,0-1.113-0.504-1.113-1.133
				c0-0.631,0.463-1.154,1.154-1.154C313.72,60.123,314.183,60.627,314.183,61.277z M312.127,74.295V64.133h1.848v10.162H312.127z"
				/>
			<path fill="#FFFFFF" d="M328.379,71.859c0,0.881,0.041,1.742,0.146,2.436h-1.658l-0.148-1.279h-0.061
				c-0.566,0.799-1.658,1.514-3.107,1.514c-2.057,0-3.105-1.449-3.105-2.918c0-2.457,2.184-3.803,6.107-3.779v-0.211
				c0-0.818-0.229-2.354-2.309-2.33c-0.967,0-1.953,0.271-2.666,0.756l-0.42-1.238c0.84-0.525,2.078-0.883,3.357-0.883
				c3.107,0,3.863,2.121,3.863,4.137V71.859L328.379,71.859z M326.594,69.109c-2.016-0.043-4.305,0.314-4.305,2.287
				c0,1.219,0.799,1.764,1.723,1.764c1.346,0,2.203-0.84,2.498-1.699c0.062-0.211,0.084-0.42,0.084-0.588V69.109z"/>
		</g>
	</g>
</g>
</svg>
