<?xml version="1.0" encoding="utf-8"?>
<!-- Generator: Adobe Illustrator 19.2.0, SVG Export Plug-In . SVG Version: 6.00 Build 0)  -->
<svg version="1.1" id="Layer_1" xmlns="http://www.w3.org/2000/svg" xmlns:xlink="http://www.w3.org/1999/xlink" x="0px" y="0px"
	 viewBox="0 0 439.9 76.7" style="enable-background:new 0 0 439.9 76.7;" xml:space="preserve">
<style type="text/css">
	.st0{fill:#0091EA;}
	.st1{fill:#F9CA06;}
	.st2{fill:#7CB342;}
	.st3{opacity:0.855;fill:#FFFFFF;enable-background:new    ;}
</style>
<title>logo@1x</title>
<g>
	<path class="st0" d="M34.4,3c5.8-3.5,13.1-1.4,16.5,4.6l27.5,50.1c3.3,6.1,1.4,13.8-4.4,17.3c-5.8,3.5-13.1,1.4-16.5-4.6L30,20.3
		C26.7,14.2,28.7,6.5,34.4,3L34.4,3z"/>
	<path class="st1" d="M7.1,75c-5.8-3.5-7.7-11.3-4.4-17.3L30.2,7.6C33.5,1.5,40.9-0.5,46.7,3c5.8,3.5,7.7,11.3,4.4,17.3L23.6,70.3
		C20.3,76.4,12.9,78.5,7.1,75L7.1,75z"/>
	<path class="st2" d="M40.7,1.9c-7,0.1-12.6,5.9-12.4,12.9c0,2.1,0.6,4.2,1.7,6.1l10.7,18.5l10.7-18.5c3.5-6.1,1.4-13.8-4.7-17.3
		C44.8,2.6,42.8,2,40.7,1.9z"/>
	<path class="st3" d="M109.8,70.6v-7.2c3.6,2.5,7.6,3.8,11.8,3.8c4.3,0,7.4-1.1,9.4-3.2c1.9-2.1,2.9-5.6,2.9-10.5V9.4h6.9v44.7
		c0,3.9-0.5,7.2-1.6,10c-1.1,2.8-2.6,4.8-4.5,6.1c-1.8,1.3-3.7,2.2-5.8,2.8c-2.1,0.6-4.2,0.9-6.4,0.8
		C118,73.9,113.6,72.8,109.8,70.6z M152.8,53.1V25.5h6.9v28c0,4.9,1.1,8.4,3.2,10.7c2.1,2.3,5.4,3.4,9.9,3.4c4.5,0,7.7-1.1,9.9-3.4
		c2.1-2.3,3.2-5.8,3.2-10.7v-28h6.9v27.6c0,6.6-1.7,11.8-5.2,15.4c-3.5,3.6-8.4,5.4-14.8,5.4c-6.4,0-11.3-1.8-14.8-5.4
		C154.5,64.8,152.8,59.7,152.8,53.1L152.8,53.1z M201.8,38.5c0-3.8,1.4-7.1,4.2-9.8c2.8-2.7,7-4.1,12.8-4.1c4.1,0,8.2,1,12.2,2.9
		v6.9c-3.6-2.2-7.5-3.3-11.5-3.3c-7.2,0-10.8,2.4-10.8,7.3c0,1.6,0.9,3,2.6,4c1.7,1,3.9,1.9,6.4,2.5c2.5,0.7,5,1.5,7.6,2.4
		c2.5,0.9,4.8,2.6,6.4,4.7c1.8,2.2,2.6,5.1,2.6,8.5c0,4.1-1.5,7.4-4.6,9.7c-3.1,2.3-7.4,3.5-12.9,3.5c-5.3,0-10.1-1.2-14.4-3.6V63
		c4.6,2.8,9.3,4.2,14.1,4.2c7.2,0,10.9-2.2,10.9-6.6c0-2.4-0.9-4.2-2.6-5.6c-1.7-1.3-3.9-2.3-6.4-3c-2.5-0.7-5.1-1.4-7.6-2.2
		c-2.5-0.8-4.7-2.1-6.4-4C202.6,44,201.8,41.5,201.8,38.5L201.8,38.5z M242.2,58.8V7.2h6.9v19.3c3.8-1.3,7.8-1.9,11.8-1.9
		c2.2,0,4.2,0.2,6.1,0.6c1.9,0.4,3.9,1.1,5.8,2.2c2,1.1,3.7,2.5,5.1,4.2c1.4,1.7,2.6,4,3.5,7c0.9,2.9,1.3,6.3,1.3,10.1
		c0,4.2-0.5,7.9-1.5,11c-1,3.2-2.2,5.6-3.6,7.3c-1.4,1.7-3.1,3.2-5.2,4.2c-2,1.1-3.9,1.8-5.6,2.1s-3.4,0.5-5.2,0.5
		c-3.5,0-6.5-0.4-9-1.3c-2.5-0.9-4.5-1.8-5.7-3c-1.3-1.1-2.3-2.5-3.1-4c-0.8-1.6-1.3-2.8-1.4-3.8C242.3,60.8,242.2,59.8,242.2,58.8z
		 M249.1,59.2c0,5.6,4.2,8.4,12.6,8.4c1.8,0,3.4-0.2,4.8-0.6c1.4-0.4,2.9-1.2,4.5-2.4c1.5-1.2,2.7-3.1,3.6-5.8
		c0.9-2.7,1.3-6.1,1.3-10.1c0-6.2-1.2-10.7-3.5-13.5c-2.4-2.8-6.2-4.2-11.5-4.2c-4,0-8,0.8-11.8,2.4
		C249.1,33.4,249.1,59.2,249.1,59.2z M292.8,73.1V29.3c7.2-3,14.9-4.6,23.1-4.6v6.6c-5.2,0.1-10.7,0.9-16.3,2.5v39.4L292.8,73.1
		L292.8,73.1z M320.1,58.5c0-2.2,0.4-4.1,1.2-5.9c0.8-1.7,1.8-3.1,2.9-4.2c1.2-1.1,2.6-2,4.4-2.8c1.8-0.8,3.3-1.3,4.7-1.7
		c1.4-0.4,3-0.6,4.9-0.8c1.9-0.2,3.2-0.3,4-0.3c0.8,0,1.7,0,2.8,0l7.6,0.5c0-4.3-1.2-7.3-3.5-9.1c-2.3-1.8-5.8-2.7-10.4-2.7
		c-5.2,0-9.8,0.8-14,2.3v-6.7c4.6-1.6,9.4-2.5,14.3-2.5c6.7,0,11.8,1.7,15.3,5.1c3.5,3.4,5.3,8.3,5.3,14.8v14.3c0,3-0.7,5.7-2.1,7.8
		c-1.3,2.1-3.2,3.7-5.5,4.7c-2,0.9-4.1,1.6-6.3,2c-1.9,0.4-3.8,0.6-5.8,0.6c-1.5,0-3-0.1-4.5-0.3c-1.8-0.2-3.5-0.7-5.2-1.3
		c-1.8-0.6-3.5-1.5-5.1-2.6c-1.4-1-2.7-2.5-3.7-4.5C320.6,63.3,320.1,61.1,320.1,58.5L320.1,58.5z M327,58.5c0,6,4.3,9,13,9h0.1
		c8.5,0,12.7-2.9,12.7-8.7v-9.2c-2.1-0.4-4.9-0.6-8.5-0.6C332.7,49.1,327,52.2,327,58.5z M367.8,38.5c0-3.8,1.4-7.1,4.2-9.8
		c2.8-2.7,7-4.1,12.8-4.1c4.1,0,8.2,1,12.2,2.9v6.9c-3.6-2.2-7.5-3.3-11.5-3.3c-7.2,0-10.8,2.4-10.8,7.3c0,1.6,0.9,3,2.6,4
		c1.7,1,3.9,1.9,6.4,2.5c2.5,0.7,5,1.5,7.6,2.4c2.5,0.9,4.8,2.6,6.4,4.7c1.8,2.2,2.6,5.1,2.6,8.5c0,4.1-1.6,7.4-4.6,9.7
		c-3.1,2.3-7.4,3.5-12.9,3.5c-5.3,0-10.1-1.2-14.4-3.6V63c4.6,2.8,9.3,4.2,14.1,4.2c7.2,0,10.9-2.2,10.9-6.6c0-2.4-0.9-4.2-2.6-5.6
		c-1.7-1.3-3.9-2.3-6.4-3c-2.5-0.7-5.1-1.4-7.6-2.2c-2.5-0.8-4.7-2.1-6.4-4C368.7,44,367.8,41.5,367.8,38.5L367.8,38.5z M409.3,17
		V9.4h7.6V17C416.9,17,409.3,17,409.3,17z M409.7,25.5h6.9v47.7h-6.9C409.7,73.1,409.7,25.5,409.7,25.5z M433,73.1V7.3h6.9v65.8
		L433,73.1L433,73.1z"/>
</g>
</svg>
