<?xml version="1.0" encoding="utf-8"?>
<!-- Generator: Adobe Illustrator 19.2.0, SVG Export Plug-In . SVG Version: 6.00 Build 0)  -->
<svg version="1.1" id="Layer_1" xmlns="http://www.w3.org/2000/svg" xmlns:xlink="http://www.w3.org/1999/xlink" x="0px" y="0px"
	 viewBox="0 0 989 348.6" style="enable-background:new 0 0 989 348.6;" xml:space="preserve">
<style type="text/css">
	.st0{fill:#FFFFFF;}
	.st1{fill:#2196F3;}
	.st2{fill:#1565C0;}
</style>
<g>
	<g>
		<g id="XMLID_122_">
			<path id="XMLID_137_" class="st0" d="M410.7,87.8H480v23.6h-41.6V122h38.6v21.5h-38.6v27.1h-27.7V87.8z"/>
			<path id="XMLID_134_" class="st0" d="M526.1,127.2c3.3,0,5.9-0.7,7.8-2.1c1.9-1.4,2.8-3.4,2.8-5.9v-0.2c0-2.7-0.9-4.7-2.8-6
				c-1.9-1.3-4.5-2-7.7-2h-12.1v16.2H526.1z M486.5,87.8h40.4c7.4,0,13.5,0.8,18.3,2.5c4.8,1.7,8.6,4,11.5,6.9
				c2.5,2.5,4.4,5.4,5.7,8.5c1.3,3.2,1.9,6.9,1.9,11.1v0.2c0,6.1-1.5,11.2-4.4,15.4c-2.9,4.2-6.9,7.5-11.9,9.9l19.3,28.1h-31.6
				l-15.6-23.6h-0.2h-5.7v23.6h-27.7V87.8z"/>
			<path id="XMLID_131_" class="st0" d="M614.2,172.3c-6.4,0-12.3-1.1-17.8-3.3c-5.5-2.2-10.2-5.2-14.3-9.1
				c-4.1-3.9-7.2-8.4-9.5-13.7c-2.3-5.2-3.4-10.9-3.4-16.8v-0.2c0-6,1.2-11.6,3.5-16.8c2.3-5.2,5.5-9.8,9.6-13.7
				c4.1-3.9,8.8-7,14.4-9.2c5.5-2.2,11.5-3.4,17.8-3.4c6.4,0,12.3,1.1,17.8,3.3c5.5,2.2,10.2,5.2,14.3,9.1c4.1,3.9,7.2,8.4,9.5,13.7
				c2.3,5.2,3.4,10.9,3.4,16.8v0.2c0,6-1.2,11.6-3.5,16.8c-2.3,5.2-5.5,9.8-9.6,13.7c-4.1,3.9-8.8,7-14.4,9.2
				C626.5,171.2,620.5,172.3,614.2,172.3z M614.4,147.9c2.6,0,5-0.5,7.1-1.5c2.1-1,3.9-2.4,5.4-4.1c1.5-1.7,2.6-3.6,3.4-5.9
				c0.8-2.2,1.2-4.5,1.2-7v-0.2c0-2.4-0.4-4.8-1.2-7c-0.8-2.2-2-4.2-3.5-6c-1.5-1.7-3.3-3.1-5.4-4.1c-2.1-1-4.5-1.5-7.2-1.5
				c-2.6,0-5,0.5-7.1,1.5c-2.1,1-3.9,2.4-5.4,4.1c-1.5,1.7-2.6,3.6-3.4,5.9c-0.8,2.2-1.2,4.5-1.2,7v0.2c0,2.4,0.4,4.8,1.2,7
				c0.8,2.2,2,4.2,3.5,6c1.5,1.7,3.3,3.1,5.4,4.1C609.3,147.3,611.7,147.9,614.4,147.9z"/>
			<path id="XMLID_129_" class="st0" d="M667,87.8h25.9l29.4,36.5V87.8h27.4v82.7h-24.6l-30.7-38.2v38.2H667V87.8z"/>
			<path id="XMLID_127_" class="st0" d="M780.3,111.2H756V87.8h76.4v23.4H808v59.3h-27.7V111.2z"/>
			<path id="XMLID_125_" class="st0" d="M868.9,87.8h27.7v82.7h-27.7V87.8z"/>
			<path id="XMLID_123_" class="st0" d="M906.2,87.8h25.9l29.4,36.5V87.8H989v82.7h-24.6l-30.7-38.2v38.2h-27.4V87.8z"/>
		</g>
		<g id="XMLID_100_">
			<path id="XMLID_120_" class="st1" d="M445.8,262.4c-7,0-13.4-1-19.5-2.9c-6-1.9-11.2-4.8-15.6-8.6l12.2-14.5
				c3.7,2.9,7.6,4.9,11.7,6.1c4.1,1.2,8.2,1.9,12.2,1.9c2.1,0,3.6-0.3,4.5-0.8c0.9-0.5,1.4-1.2,1.4-2.1v-0.2c0-1-0.7-1.8-2-2.4
				c-1.3-0.6-3.8-1.3-7.5-2c-3.8-0.8-7.5-1.7-11-2.7c-3.5-1-6.5-2.4-9.2-4c-2.6-1.6-4.7-3.7-6.3-6.1c-1.6-2.4-2.3-5.5-2.3-9.1v-0.2
				c0-3.3,0.6-6.3,1.9-9.1c1.3-2.8,3.1-5.2,5.6-7.3c2.4-2.1,5.5-3.7,9.1-4.9c3.6-1.2,7.8-1.8,12.4-1.8c6.6,0,12.4,0.8,17.4,2.3
				c5,1.6,9.4,3.9,13.4,7l-11.1,15.4c-3.3-2.3-6.7-4-10.3-5.1c-3.6-1.1-7-1.6-10.2-1.6c-1.7,0-2.9,0.3-3.8,0.8
				c-0.8,0.5-1.2,1.2-1.2,2v0.2c0,0.5,0.1,0.9,0.4,1.3c0.3,0.4,0.7,0.8,1.4,1.1c0.7,0.4,1.6,0.7,2.8,1c1.2,0.3,2.7,0.7,4.5,1
				c4.4,0.8,8.3,1.7,11.9,2.8c3.6,1.1,6.7,2.5,9.2,4.2c2.6,1.7,4.6,3.8,6,6.2c1.4,2.4,2.1,5.3,2.1,8.8v0.2c0,3.6-0.7,6.8-2.1,9.7
				c-1.4,2.9-3.4,5.3-6,7.3c-2.6,2-5.8,3.5-9.5,4.6C454.5,261.9,450.3,262.4,445.8,262.4z"/>
			<path id="XMLID_117_" class="st1" d="M505,192.4h22.6l28.8,68.8h-24.8L528,252h-23.9l-3.5,9.2h-24.4L505,192.4z M522.4,235.8
				l-6.2-16.6l-6.2,16.6H522.4z"/>
			<path id="XMLID_115_" class="st1" d="M559.2,192.8h22.8v48.8h32.1v19.5h-54.9V192.8z"/>
			<path id="XMLID_113_" class="st1" d="M614.2,192.8h25.6l13.3,38.3l13.3-38.3h25.2l-27.7,68.8h-21.9L614.2,192.8z"/>
			<path id="XMLID_110_" class="st1" d="M718.1,192.4h22.6l28.8,68.8h-24.8l-3.6-9.2h-23.9l-3.5,9.2h-24.4L718.1,192.4z
				 M735.4,235.8l-6.2-16.6l-6.2,16.6H735.4z"/>
			<path id="XMLID_107_" class="st1" d="M772.3,192.8h26.1c6.8,0,12.7,0.8,17.8,2.4c5.1,1.6,9.4,3.9,12.7,6.8
				c3.4,2.9,5.9,6.5,7.6,10.6c1.7,4.1,2.5,8.7,2.5,13.8v0.2c0,5.1-0.9,9.7-2.6,14c-1.7,4.2-4.3,7.9-7.8,10.9
				c-3.5,3.1-7.8,5.4-13,7.1c-5.2,1.7-11.2,2.5-18.1,2.5h-25.4V192.8z M798.9,241.2c5.3,0,9.4-1.1,12.5-3.4
				c3.1-2.2,4.6-5.8,4.6-10.8v-0.2c0-4.9-1.5-8.5-4.6-10.8c-3.1-2.2-7.3-3.4-12.5-3.4h-3.8v28.5H798.9z"/>
			<path id="XMLID_104_" class="st1" d="M881,262.6c-5.3,0-10.2-0.9-14.7-2.7c-4.5-1.8-8.5-4.3-11.8-7.5c-3.4-3.2-6-6.9-7.9-11.3
				c-1.9-4.3-2.8-9-2.8-13.9V227c0-4.9,1-9.6,2.9-13.9c1.9-4.3,4.6-8.1,7.9-11.3c3.3-3.2,7.3-5.8,11.9-7.6c4.6-1.9,9.5-2.8,14.7-2.8
				s10.2,0.9,14.7,2.7c4.5,1.8,8.5,4.3,11.8,7.5c3.3,3.2,6,6.9,7.9,11.3c1.9,4.3,2.8,9,2.8,13.9v0.2c0,4.9-1,9.6-2.9,13.9
				c-1.9,4.3-4.6,8.1-7.9,11.3c-3.4,3.2-7.3,5.8-11.9,7.6C891.2,261.7,886.3,262.6,881,262.6z M881.2,242.4c2.1,0,4.1-0.4,5.9-1.3
				c1.8-0.8,3.3-2,4.5-3.4c1.2-1.4,2.2-3,2.8-4.8c0.6-1.8,1-3.7,1-5.8V227c0-2-0.3-4-1-5.8c-0.7-1.9-1.6-3.5-2.9-4.9
				c-1.2-1.4-2.7-2.6-4.5-3.4c-1.8-0.8-3.7-1.3-6-1.3c-2.1,0-4.1,0.4-5.9,1.3c-1.8,0.8-3.3,2-4.5,3.4c-1.2,1.4-2.2,3-2.8,4.8
				c-0.7,1.8-1,3.7-1,5.8v0.2c0,2,0.3,4,1,5.8c0.7,1.9,1.6,3.5,2.9,4.9c1.2,1.4,2.7,2.6,4.5,3.4C877,242,879,242.4,881.2,242.4z"/>
			<path id="XMLID_101_" class="st1" d="M924.6,192.8H958c6.1,0,11.1,0.7,15.1,2.1c3.9,1.4,7.1,3.3,9.5,5.7c2.1,2.1,3.6,4.4,4.7,7
				c1,2.6,1.6,5.7,1.6,9.2v0.2c0,5-1.2,9.2-3.6,12.7c-2.4,3.4-5.7,6.2-9.9,8.2l15.9,23.2h-26l-12.9-19.5h-0.2h-4.7v19.5h-22.8V192.8
				z M957.3,225.3c2.7,0,4.9-0.6,6.4-1.8c1.6-1.2,2.3-2.8,2.3-4.9v-0.2c0-2.2-0.8-3.9-2.3-4.9c-1.6-1.1-3.7-1.6-6.3-1.6h-10v13.4
				H957.3z"/>
		</g>
	</g>
	<g>
		<path id="XMLID_98_" class="st1" d="M174.3,0C78,0,0,78,0,174.3c0,78.8,52.3,145.4,124.2,167c0.8-10.2,4.6-50.5,5.3-57.5
			c14.3,3.4,29.3,5.1,44.6,5.1c15.7,0,31-1.9,45.7-5.4l4.8,57.7c71.8-21.6,124.1-88.2,124.1-167C348.6,78,270.6,0,174.3,0z"/>
		<path id="XMLID_97_" class="st2" d="M174.3,212.1c-56.4,0-106.5,26.8-138.4,68.3c22,28.7,52.7,50.3,88.2,60.9
			c0.8-10.2,4.6-50.5,5.3-57.5c14.3,3.4,29.3,5.1,44.6,5.1c15.7,0,31-1.9,45.7-5.4l4.8,57.7c35.4-10.6,66.1-32.3,88.1-60.9
			C280.8,238.9,230.7,212.1,174.3,212.1z"/>
		<rect id="XMLID_96_" x="141.1" y="91.7" class="st0" width="67" height="51.2"/>
		<path id="XMLID_95_" class="st0" d="M174.3,348.6c17.5,0,34.3-2.6,50.2-7.3l-4.8-57.7c-14.6,3.5-30,5.4-45.7,5.4
			c-15.4,0-30.3-1.8-44.6-5.1c-0.7,7-4.5,47.3-5.3,57.5C140,346.1,156.9,348.6,174.3,348.6z"/>
		<path id="XMLID_94_" class="st0" d="M208.6,164.8c0,0-2.7-5.9-34.3-5.9c-31.6,0-34.3,5.9-34.3,5.9l-5.3,51.8
			c0,0,17.2,4.7,39.8,4.5c12-0.1,26.4-1.1,39.6-4.4L208.6,164.8z"/>
		<polygon id="XMLID_93_" points="179.9,173.4 173,173.4 168.7,173.4 168.7,198.5 173,198.5 179.9,198.5 		"/>
		<polyline id="XMLID_92_" points="168.7,325.6 168.7,330.2 173.1,330.2 179.9,330.2 179.9,305.1 173.1,305.1 168.7,305.1 
			168.7,317.5 		"/>
		<path id="XMLID_91_" d="M134.6,216.6l-5.5,67.3c14.3,3.4,29.3,5.1,44.6,5.1c15.7,0,31-1.9,45.7-5.4l-5.5-66.9
			c-12.8-3-26.2-4.6-39.9-4.6C160.5,212.1,147.3,213.6,134.6,216.6z"/>
		<polygon id="XMLID_90_" class="st0" points="179.9,236.9 173.1,236.9 168.7,236.9 168.7,261.9 173.1,261.9 179.9,261.9 		"/>
		<path id="XMLID_89_" d="M174.3,106.8L174.3,106.8C174.3,106.8,174.3,106.8,174.3,106.8L174.3,106.8z"/>
		<path id="XMLID_88_" d="M174.3,60"/>
		<path id="XMLID_86_" d="M217.9,141.3c-1.5-1.5-3.8-2.8-5.9-3.9c-0.4-0.2-0.6-0.6-0.6-1V98c0-0.6,0.5-1.1,1.1-1.1l0,0v0
			c1.1,0,1.8,0,2.6,0c0.9-0.1,1.7-0.5,2.2-1.3c0.5-0.9,0.3-2-0.1-3c-0.2-0.4-0.4-0.9-0.7-1.3c-0.3-0.5-0.7-0.9-1-1.4
			c-0.4-0.5-0.8-1-1.3-1.5c-0.5-0.5-1-1-1.5-1.5c-0.6-0.5-1.1-1.1-1.7-1.6c-0.6-0.6-1.3-1.1-1.9-1.7c-0.7-0.6-1.4-1.1-2.1-1.7
			c-0.7-0.6-1.5-1.2-2.2-1.7c-0.8-0.6-1.5-1.2-2.3-1.7c-0.8-0.6-1.6-1.2-2.4-1.7c-0.8-0.6-1.6-1.2-2.4-1.7c-0.8-0.6-1.6-1.1-2.5-1.7
			c-0.7-0.5-13.8-9.3-18.9-12.6c-1.2-0.8-2.7-0.8-3.8,0c-5,3.3-18.3,12.1-18.9,12.6c-0.8,0.6-1.7,1.1-2.5,1.7
			c-0.8,0.6-1.6,1.1-2.4,1.7c-0.8,0.6-1.6,1.2-2.4,1.7c-0.8,0.6-1.5,1.2-2.3,1.7c-0.7,0.6-1.5,1.1-2.2,1.7c-0.7,0.6-1.4,1.1-2.1,1.7
			c-0.6,0.5-1.3,1.1-1.9,1.7c-0.6,0.5-1.2,1.1-1.7,1.6c-0.5,0.5-1,1-1.5,1.5c-0.4,0.5-0.9,1-1.3,1.5c-0.4,0.4-0.7,0.9-1,1.4
			c-0.3,0.4-0.5,0.8-0.7,1.3c-0.4,0.9-0.7,2-0.1,3c0.5,0.8,1.3,1.3,2.2,1.3c0.9,0.1,1.6,0.1,2.7,0v0l0,0c0.6,0,1.1,0.5,1.1,1.1v38.4
			c0,0.4-0.2,0.8-0.6,1c-2.1,1.1-4.4,2.4-6,3.9c-4.3,4.2-4.4,19.2,3.2,22.7c0,0,0.2,0,0.2,0c0.4,0.5,1.4,0.8,3.1,0.8h2.2
			c0.3,0,0.6-0.1,0.8-0.4c1.2-1.3,7.3-5.6,34.1-5.6c26.8,0,32.8,4.3,34,5.6c0.2,0.2,0.5,0.4,0.8,0.4h2.2c1.7,0,2.7-0.3,3.1-0.8
			c0,0,0.2,0,0.2,0C222.2,160.5,222.1,145.5,217.9,141.3z"/>
		<g>
			<g>
				<path id="XMLID_85_" class="st0" d="M142.9,112.7c3.5-1.5,10.6-2.5,15.9-3.2V92.3c-5.3,0.6-12.4,1.7-15.9,3.2V112.7z"/>
				<path id="XMLID_84_" class="st0" d="M142.9,135.3c3.5-1.5,10.6-2.5,15.9-3.2V115c-5.3,0.6-12.4,1.7-15.9,3.2V135.3z"/>
			</g>
			<g>
				<path id="XMLID_83_" class="st0" d="M188.7,92.4v17.1c7.1,0.7,14.1,1.7,17.6,3.2V95.6C202.9,94.2,195.8,93.1,188.7,92.4z"/>
				<path id="XMLID_82_" class="st0" d="M188.7,132.2c7.1,0.7,14.1,1.7,17.6,3.2v-17.1c-3.5-1.4-10.6-2.5-17.6-3.2V132.2z"/>
			</g>
			<g>
				<path id="XMLID_81_" class="st0" d="M163.6,92v17.1c3.5-0.2,6.9-0.3,10.2-0.3c3.6,0,5.7,0.1,11,0.4V92c-5.3-0.2-7.4-0.4-11-0.4
					C170.5,91.7,167.1,91.8,163.6,92z"/>
				<path id="XMLID_80_" class="st0" d="M163.6,114.6v17.1c3.5-0.2,6.9-0.3,10.2-0.3c3.6,0,5.7,0.1,11,0.4v-17.1
					c-5.3-0.2-7.4-0.4-11-0.4C170.5,114.3,167.1,114.4,163.6,114.6z"/>
			</g>
		</g>
	</g>
</g>
</svg>
