<?xml version="1.0" encoding="utf-8"?>
<!-- Generator: Adobe Illustrator 19.2.0, SVG Export Plug-In . SVG Version: 6.00 Build 0)  -->
<svg version="1.1" id="logo" xmlns="http://www.w3.org/2000/svg" xmlns:xlink="http://www.w3.org/1999/xlink" x="0px" y="0px"
	 viewBox="0 0 576 183.9" style="enable-background:new 0 0 576 183.9;" xml:space="preserve">
<style type="text/css">
	.st0{fill:#FFFFFF;}
</style>
<g>
	<path class="st0" d="M126.1,76.9L49.2,0L33.6,15.6l28.9,28.9L0,107l76.9,76.9l15.6-15.6l-28.9-28.9L126.1,76.9z M34.8,109.3
		l46.5-46.5l9.4,9.4l-46.5,46.9L34.8,109.3z"/>
	<g>
		<path class="st0" d="M179.2,22.3v23.4H205v13.7h-25.8v53.1c0,12.1,3.5,19.1,13.3,19.1c4.7,0,7.8-0.4,10.5-1.2l0.8,13.7
			c-3.5,1.2-9,2.3-16,2.3c-8.2,0-15.2-2.7-19.1-7.4c-4.7-5.5-7-14.1-7-25.8V59.4h-15.2V45.7h15.2V27.3L179.2,22.3z"/>
		<path class="st0" d="M301.1,94.5c0,36.3-25.4,52.3-49.2,52.3c-26.6,0-47.3-19.5-47.3-50.8c0-32.8,21.9-51.9,48.8-51.9
			C281.9,43.7,301.1,64.4,301.1,94.5z M223.4,95.3c0,21.5,12.1,37.9,29.7,37.9c17.2,0,30.1-16,30.1-38.3c0-16.8-8.2-37.5-29.7-37.5
			C232.4,57.4,223.4,76.9,223.4,95.3z"/>
		<path class="st0" d="M310.1,78.1c0-12.5-0.4-22.6-0.8-32h16l1.2,16.8h0.4c7-12.1,18.7-18.7,35.1-18.7c23.8,0,41.8,20.3,41.8,50
			c0,35.5-21.9,52.7-44.9,52.7c-12.9,0-24.6-5.9-30.5-15.6H328v53.5h-17.6V78.1H310.1z M327.6,104.3c0,2.7,0.4,5.1,0.8,7.4
			c3.1,12.5,14.1,21.1,26.9,21.1c18.7,0,30.1-15.6,30.1-37.9c0-19.5-10.5-36.3-29.3-36.3c-12.1,0-23.8,8.6-26.9,21.9
			c-0.8,2.3-1.2,5.1-1.2,7v16.8H327.6z"/>
		<path class="st0" d="M437.8,22.3v23.4h25.8v13.7h-25.8v53.1c0,12.1,3.5,19.1,13.3,19.1c4.7,0,7.8-0.4,10.5-1.2l0.8,13.7
			c-3.5,1.2-9,2.3-16,2.3c-8.2,0-15.2-2.7-19.1-7.4c-5.1-5.5-7-14.1-7-25.8V59.4H405V45.7h15.2V27.3L437.8,22.3z"/>
		<path class="st0" d="M544.8,120.7c0,8.6,0.4,16.8,1.6,23.4h-16l-1.6-12.5H528c-5.5,7.8-16,14.8-30.1,14.8
			c-19.9,0-30.1-14.1-30.1-28.1c0-23.8,21.1-36.7,59.4-36.7v-2c0-7.8-2.3-22.6-22.3-22.6c-9.4,0-18.7,2.7-25.8,7.4l-3.9-12.1
			c8.2-5.1,20.3-8.6,32.4-8.6c30.1,0,37.5,20.7,37.5,40.2v36.7H544.8z M527.6,94.1c-19.5-0.4-41.8,3.1-41.8,22.3
			c0,11.7,7.8,17.2,16.8,17.2c12.9,0,21.5-8.2,24.2-16.4c0.8-2,0.8-3.9,0.8-5.9V94.1z"/>
		<path class="st0" d="M558,0h18v144.5h-18V0z"/>
	</g>
</g>
</svg>
